<svg preserveAspectRatio="none" width="100%" height="100%" overflow="visible" style="display: block;" viewBox="0 0 100 30" fill="none" xmlns="http://www.w3.org/2000/svg">
<g id="Amazon Logo" clip-path="url(#clip0_44_625)">
<path id="Vector" d="M62.0243 23.4369C56.22 27.6892 47.8072 29.958 40.5639 29.958C30.4076 29.958 21.2643 26.2243 14.347 20.0143C13.8036 19.526 14.2905 18.8605 14.9427 19.2408C22.4077 23.5579 31.638 26.1551 41.1725 26.1551C47.6028 26.1551 54.6766 24.8328 61.1808 22.0886C62.1634 21.6738 62.9851 22.7282 62.0243 23.4369Z" fill="var(--fill-0, #FF9900)"/>
<path id="Vector_2" d="M64.4373 20.6928C63.6982 19.7507 59.533 20.2477 57.6635 20.4681C57.094 20.5372 57.007 20.0446 57.52 19.6902C60.8374 17.3696 66.2807 18.0394 66.9155 18.8173C67.5503 19.5995 66.7503 25.0229 63.6329 27.6115C63.1547 28.009 62.6982 27.7973 62.9112 27.2701C63.6112 25.5328 65.1807 21.6392 64.4373 20.6928Z" fill="var(--fill-0, #FF9900)"/>
<path id="Vector_3" d="M57.7939 3.30758V1.05178C57.7939 0.710384 58.0548 0.481347 58.3678 0.481347H68.5285C68.8546 0.481347 69.1154 0.714706 69.1154 1.05178V2.98347C69.1111 3.30758 68.8372 3.73108 68.3502 4.40091L63.0851 11.8727C65.0416 11.8252 67.1068 12.1147 68.8807 13.1086C69.2807 13.3334 69.3893 13.6618 69.4198 13.9859V16.393C69.4198 16.7214 69.0546 17.106 68.672 16.9072C65.5459 15.278 61.3939 15.1008 57.9374 16.9245C57.5852 17.1146 57.2157 16.7344 57.2157 16.4059V14.1199C57.2157 13.7525 57.22 13.1259 57.5896 12.5685L63.6895 3.87369H58.3809C58.0548 3.87369 57.7939 3.64466 57.7939 3.30758Z" fill="var(--fill-0, black)"/>
<path id="Vector_4" d="M20.7295 17.3826H17.6383C17.3426 17.361 17.1078 17.1406 17.0861 16.8597V1.09067C17.0861 0.775208 17.3513 0.524562 17.6817 0.524562H20.5643C20.8643 0.537518 21.1034 0.766563 21.1251 1.05178V3.11312H21.1817C21.9338 1.12092 23.3468 0.191809 25.2511 0.191809C27.1859 0.191809 28.3945 1.12092 29.2641 3.11312C30.0119 1.12092 31.7119 0.191809 33.5336 0.191809C34.8292 0.191809 36.2466 0.723348 37.1118 1.91607C38.09 3.24276 37.89 5.17013 37.89 6.85982L37.8857 16.8121C37.8857 17.1276 37.6204 17.3826 37.29 17.3826H34.2031C33.8944 17.361 33.6466 17.1146 33.6466 16.8121V8.45444C33.6466 7.78893 33.7075 6.12949 33.5597 5.49856C33.3292 4.4398 32.6379 4.14162 31.7423 4.14162C30.9945 4.14162 30.2119 4.63859 29.8945 5.43374C29.5771 6.22889 29.6076 7.55989 29.6076 8.45444V16.8121C29.6076 17.1276 29.3424 17.3826 29.0119 17.3826H25.925C25.612 17.361 25.3685 17.1146 25.3685 16.8121L25.3642 8.45444C25.3642 6.6956 25.6555 4.10705 23.4599 4.10705C21.2382 4.10705 21.3251 6.63078 21.3251 8.45444V16.8121C21.3251 17.1276 21.0599 17.3826 20.7295 17.3826Z" fill="var(--fill-0, black)"/>
<path id="Vector_5" d="M77.8631 0.191809C82.45 0.191809 84.9325 4.10705 84.9325 9.08537C84.9325 13.8952 82.1891 17.711 77.8631 17.711C73.3588 17.711 70.9067 13.7958 70.9067 8.91683C70.9067 4.00766 73.3893 0.191809 77.8631 0.191809ZM77.8892 3.4113C75.611 3.4113 75.4675 6.49682 75.4675 8.41987C75.4675 10.3472 75.4371 14.4613 77.8631 14.4613C80.2587 14.4613 80.3717 11.1424 80.3717 9.11994C80.3717 7.78893 80.3152 6.19864 79.9109 4.93677C79.5631 3.83912 78.8718 3.4113 77.8892 3.4113Z" fill="var(--fill-0, black)"/>
<path id="Vector_6" d="M90.8802 17.3826H87.802C87.4933 17.361 87.2455 17.1146 87.2455 16.8121L87.2412 1.03881C87.2672 0.749276 87.5238 0.524562 87.8368 0.524562H90.702C90.9715 0.537518 91.1932 0.719028 91.2541 0.965351V3.37672H91.3106C92.1758 1.22032 93.3888 0.191809 95.5236 0.191809C96.9105 0.191809 98.2627 0.688777 99.1322 2.05004C99.9409 3.3119 99.9409 5.43374 99.9409 6.95921V16.8856C99.9061 17.1622 99.6496 17.3826 99.3452 17.3826H96.2453C95.9627 17.361 95.7279 17.1535 95.6975 16.8856V8.32047C95.6975 6.59621 95.8975 4.07248 93.7628 4.07248C93.0106 4.07248 92.3193 4.57377 91.9758 5.33434C91.5411 6.29803 91.4845 7.25739 91.4845 8.32047V16.8121C91.4802 17.1276 91.2106 17.3826 90.8802 17.3826Z" fill="var(--fill-0, black)"/>
<path id="Vector_7" d="M9.16886 9.85027V9.18476C6.93413 9.18476 4.57331 9.66012 4.57331 12.2789C4.57331 13.6056 5.2646 14.5045 6.45153 14.5045C7.32108 14.5045 8.09932 13.9729 8.59062 13.1086C9.1993 12.0456 9.16886 11.0473 9.16886 9.85027ZM12.2862 17.3394C12.0818 17.5209 11.7862 17.5338 11.5558 17.4128C10.5297 16.5658 10.3471 16.1726 9.78189 15.3644C8.08628 17.0844 6.8863 17.5986 4.68635 17.5986C2.0864 17.5986 0.0603599 16.004 0.0603599 12.8105C0.0603599 10.317 1.4212 8.61865 3.35594 7.78893C5.03417 7.05428 7.3776 6.92464 9.16886 6.72153V6.32396C9.16886 5.59363 9.22539 4.72934 8.79496 4.09841C8.4167 3.5323 7.69498 3.29894 7.06021 3.29894C5.88198 3.29894 4.82982 3.89962 4.57331 5.1442C4.52113 5.42077 4.31679 5.69303 4.03854 5.70599L1.0386 5.3862C0.786431 5.33002 0.508176 5.12691 0.57774 4.74231C1.26903 1.12957 4.55157 0.0405577 7.49064 0.0405577C8.99495 0.0405577 10.9601 0.438132 12.1471 1.57035C13.6514 2.96618 13.5079 4.82873 13.5079 6.8555V11.6437C13.5079 13.0827 14.1079 13.7137 14.6731 14.4915C14.8731 14.7681 14.9166 15.1008 14.6644 15.3083C14.034 15.8312 12.9123 16.8035 12.2949 17.348L12.2862 17.3394Z" fill="var(--fill-0, black)"/>
<path id="Vector_8" d="M49.6445 9.85027V9.18476C47.4097 9.18476 45.0489 9.66012 45.0489 12.2789C45.0489 13.6056 45.7402 14.5045 46.9271 14.5045C47.7967 14.5045 48.5749 13.9729 49.0662 13.1086C49.6749 12.0456 49.6445 11.0473 49.6445 9.85027ZM52.7618 17.3394C52.5574 17.5209 52.2618 17.5338 52.0314 17.4128C51.0053 16.5658 50.8227 16.1726 50.2575 15.3644C48.5619 17.0844 47.3619 17.5986 45.1619 17.5986C42.562 17.5986 40.5359 16.004 40.5359 12.8105C40.5359 10.317 41.8968 8.61865 43.8315 7.78893C45.5098 7.05428 47.8532 6.92464 49.6445 6.72153V6.32396C49.6445 5.59363 49.701 4.72934 49.2705 4.09841C48.8923 3.5323 48.1706 3.29894 47.5358 3.29894C46.3576 3.29894 45.3054 3.89962 45.0489 5.1442C44.9967 5.42077 44.7924 5.69303 44.5141 5.70599L41.5098 5.38188C41.2577 5.3257 40.9794 5.12259 41.049 4.73798C41.7403 1.12525 45.0228 0.0362357 47.9619 0.0362357C49.4662 0.0362357 51.4314 0.43381 52.6183 1.56603C54.1226 2.96186 53.9791 4.82441 53.9791 6.85118V11.6393C53.9791 13.0784 54.5791 13.7093 55.1443 14.4872C55.3443 14.7638 55.3878 15.0965 55.1356 15.3039C54.5052 15.8268 53.3835 16.7992 52.7661 17.3437L52.7574 17.335" fill="var(--fill-0, black)"/>
</g>
<defs>
<clipPath id="clip0_44_625">
<rect width="100" height="30" fill="white"/>
</clipPath>
</defs>
</svg>
