<svg preserveAspectRatio="none" width="100%" height="100%" overflow="visible" style="display: block;" viewBox="0 0 40 46" fill="none" xmlns="http://www.w3.org/2000/svg">
<g id="Apple Logo" clip-path="url(#clip0_44_733)">
<path id="Vector" d="M39.1617 35.848C38.4435 37.4551 37.5934 38.9344 36.6085 40.2945C35.266 42.1486 34.1668 43.4321 33.3197 44.1448C32.0065 45.3146 30.5994 45.9137 29.0928 45.9478C28.0111 45.9478 26.7067 45.6496 25.1883 45.0448C23.665 44.4429 22.265 44.1448 20.9849 44.1448C19.6424 44.1448 18.2026 44.4429 16.6625 45.0448C15.12 45.6496 13.8775 45.9648 12.9275 45.9961C11.4826 46.0557 10.0425 45.4395 8.60501 44.1448C7.68753 43.3696 6.53994 42.0407 5.16518 40.1582C3.69017 38.1479 2.4775 35.8167 1.52748 33.159C0.51004 30.2884 0 27.5086 0 24.8174C0 21.7346 0.687674 19.0758 2.06507 16.8477C3.14759 15.058 4.58772 13.6463 6.39015 12.6099C8.19258 11.5735 10.1401 11.0453 12.2374 11.0116C13.385 11.0116 14.8899 11.3554 16.7601 12.0312C18.6249 12.7092 19.8224 13.0531 20.3474 13.0531C20.7399 13.0531 22.0701 12.651 24.3251 11.8495C26.4576 11.1061 28.2574 10.7983 29.7318 10.9196C33.7271 11.2319 36.7287 12.7575 38.7249 15.5061C35.1517 17.6033 33.3841 20.5407 33.4193 24.3088C33.4516 27.244 34.5508 29.6864 36.7111 31.6257C37.6902 32.5258 38.7835 33.2215 40 33.7156C39.7362 34.4566 39.4577 35.1665 39.1617 35.848ZM29.9985 0.920262C29.9985 3.22079 29.1309 5.36878 27.4014 7.35694C25.3144 9.72048 22.79 11.0862 20.0525 10.8707C20.0176 10.5947 19.9974 10.3043 19.9974 9.99902C19.9974 7.79052 20.9899 5.42699 22.7525 3.49448C23.6324 2.51602 24.7516 1.70244 26.1088 1.05343C27.463 0.414105 28.744 0.0605457 29.9487 0C29.9839 0.307544 29.9985 0.615138 29.9985 0.920262Z" fill="var(--fill-0, #6F6F6F)"/>
</g>
<defs>
<clipPath id="clip0_44_733">
<rect width="40" height="46" fill="white"/>
</clipPath>
</defs>
</svg>
