<svg preserveAspectRatio="none" width="100%" height="100%" overflow="visible" style="display: block;" viewBox="0 0 62.4426 15.4511" fill="none" xmlns="http://www.w3.org/2000/svg">
<g id="Group">
<path id="Vector" d="M0 1.41935C0 0.946237 0 0.473118 0 0C1.57705 0 3.1541 0 4.77377 0C4.77377 0.473118 4.77377 0.946237 4.77377 1.41935C4.26229 1.41935 3.79344 1.41935 3.28197 1.41935C3.28197 3.05376 3.28197 4.68817 3.28197 6.32258C5.79672 6.32258 8.31147 6.32258 10.8262 6.32258C10.8262 4.68817 10.8262 3.05376 10.8262 1.41935C10.3148 1.41935 9.80328 1.41935 9.33442 1.41935C9.33442 0.946237 9.33442 0.473118 9.33442 0C10.9115 0 12.4885 0 14.1082 0C14.1082 0.473118 14.1082 0.946237 14.1082 1.41935C13.5967 1.41935 13.0852 1.41935 12.6164 1.41935C12.6164 5.50538 12.6164 9.63441 12.6164 13.7204C13.1279 13.7204 13.6393 13.7204 14.1082 13.7204C14.1082 14.1935 14.1082 14.6667 14.1082 15.1398C12.5312 15.1398 10.9541 15.1398 9.33442 15.1398C9.33442 14.6667 9.33442 14.1935 9.33442 13.7204C9.8459 13.7204 10.3574 13.7204 10.8262 13.7204C10.8262 11.6989 10.8262 9.72043 10.8262 7.69892C8.31147 7.69892 5.79672 7.69892 3.28197 7.69892C3.28197 9.72043 3.28197 11.6989 3.28197 13.7204C3.79344 13.7204 4.30492 13.7204 4.77377 13.7204C4.77377 14.1935 4.77377 14.6667 4.77377 15.1398C3.19672 15.1398 1.61967 15.1398 0 15.1398C0 14.6667 0 14.1935 0 13.7204C0.511475 13.7204 1.02295 13.7204 1.4918 13.7204C1.4918 9.63441 1.4918 5.50538 1.4918 1.41935C0.980328 1.41935 0.468852 1.41935 0 1.41935Z" fill="var(--fill-0, black)"/>
<path id="Vector_2" d="M39.1705 1.39312e-08C40.1934 1.39312e-08 41.2164 1.39312e-08 42.282 1.39312e-08C42.282 3.82796 42.282 7.69892 42.282 11.5269C42.282 11.871 42.282 12.2151 42.282 12.6022C42.3246 12.9032 42.3672 13.2903 42.5377 13.5484C42.7082 13.7634 42.9639 13.8495 43.2197 13.8495C43.518 13.8495 43.7738 13.8495 44.0721 13.7634C44.0721 14.2366 44.0721 14.6667 44.0721 15.1398C43.5607 15.3118 43.0066 15.3118 42.4951 15.2258C42.0688 15.1398 41.6 14.9677 41.3016 14.6667C40.9607 14.3656 40.7902 13.8925 40.7049 13.4624C40.577 12.9032 40.6197 12.3011 40.6197 11.7419C40.6197 8.30108 40.6197 4.8172 40.6197 1.37634C40.1508 1.37634 39.682 1.37634 39.2131 1.37634C39.1705 0.946237 39.1705 0.473118 39.1705 1.39312e-08Z" fill="var(--fill-0, black)"/>
<path id="Vector_3" d="M50.3377 1.39312e-08C51.3607 1.39312e-08 52.3836 1.39312e-08 53.4066 1.39312e-08C53.4066 1.93548 53.4066 3.91398 53.4066 5.84946C53.8754 5.2043 54.6 4.77419 55.3672 4.55914C56.1344 4.34409 56.9443 4.34409 57.7541 4.51613C58.5639 4.68817 59.2885 5.11828 59.8426 5.72043C60.5246 6.45161 60.8656 7.39785 60.9934 8.3871C61.0361 8.86021 61.0361 9.33333 61.0361 9.76344C61.0361 11.0968 61.0361 12.4301 61.0361 13.7634C61.5049 13.7634 61.9738 13.7634 62.4426 13.7634C62.4426 14.2366 62.4426 14.6667 62.4426 15.1398C60.9508 15.1398 59.459 15.1398 57.9246 15.1398C57.9246 14.6667 57.9246 14.2366 57.9246 13.7634C58.3934 13.7634 58.8623 13.7634 59.3312 13.7634C59.3312 12.172 59.3312 10.5806 59.3312 8.94624C59.3312 8.12903 59.118 7.31183 58.6066 6.66667C58.1377 6.15054 57.4557 5.84946 56.7738 5.80645C56.0492 5.76344 55.282 5.84946 54.6426 6.23656C54.1738 6.53763 53.8328 7.01075 53.6197 7.52688C53.4492 8 53.4066 8.47312 53.4066 8.98925C53.4066 10.5806 53.4066 12.129 53.4066 13.7204C53.8754 13.7204 54.3443 13.7204 54.8131 13.7204C54.8131 14.1935 54.8131 14.6237 54.8131 15.0968C53.3213 15.0968 51.8295 15.0968 50.3377 15.0968C50.3377 14.6237 50.3377 14.1935 50.3377 13.7204C50.8066 13.7204 51.2754 13.7204 51.7443 13.7204C51.7443 9.5914 51.7443 5.46237 51.7443 1.33333C51.2754 1.33333 50.8066 1.33333 50.3377 1.33333C50.3377 0.946236 50.3377 0.473118 50.3377 1.39312e-08Z" fill="var(--fill-0, black)"/>
<path id="Vector_4" d="M45.6066 2.02151C46.1607 2.02151 46.7148 2.02151 47.3115 2.02151C47.3115 2.92473 47.3115 3.78495 47.3115 4.68817C47.9934 4.68817 48.718 4.68817 49.4 4.68817C49.4 5.16129 49.4 5.5914 49.4 6.06452C48.718 6.06452 47.9934 6.06452 47.3115 6.06452C47.3115 8.21505 47.3115 10.3226 47.3115 12.4731C47.3115 12.8172 47.3541 13.1613 47.5246 13.4624C47.6951 13.6774 47.9508 13.8064 48.2066 13.8064C48.5902 13.8495 49.0164 13.8065 49.4 13.7634C49.4 14.2366 49.4 14.6667 49.4 15.1398C48.8459 15.3118 48.2918 15.3118 47.7377 15.2258C47.1836 15.1398 46.6295 14.9677 46.2459 14.5376C45.6918 13.9785 45.6066 13.1183 45.6066 12.3441C45.6066 10.2366 45.6066 8.12903 45.6066 6.02151C45.0525 6.02151 44.541 6.02151 43.9869 6.02151C43.9869 5.54839 43.9869 5.11828 43.9869 4.64516C44.541 4.64516 45.0525 4.64516 45.6066 4.64516C45.6066 3.82796 45.6066 2.92473 45.6066 2.02151Z" fill="var(--fill-0, black)"/>
<path id="Vector_5" d="M18.5836 4.60215C19.5213 4.34409 20.5443 4.34409 21.482 4.51613C22.5902 4.73118 23.6131 5.33333 24.2951 6.19355C24.8066 6.83871 25.1049 7.56989 25.2754 8.34409C25.4459 9.03226 25.4033 9.76344 25.4033 10.4516C22.4197 10.4516 19.4361 10.4516 16.4951 10.4516C16.5377 11.3118 16.8361 12.172 17.3902 12.8172C17.859 13.3763 18.541 13.7634 19.2656 13.8925C20.0328 14.0645 20.8426 14.0215 21.5672 13.8065C22.3771 13.5914 23.1016 13.0323 23.4852 12.3011C24.0393 12.3011 24.5934 12.3011 25.1902 12.3011C24.7213 13.3763 23.9115 14.2796 22.8459 14.7957C22.0787 15.1828 21.2262 15.3548 20.3738 15.3978C19.0525 15.4409 17.7311 15.0538 16.7082 14.2366C15.7279 13.4624 15.0885 12.2581 14.8754 11.0108C14.6197 9.50538 14.8754 7.87097 15.7279 6.62366C16.3246 5.63441 17.3902 4.90323 18.5836 4.60215ZM19.3082 5.89247C18.5836 6.02151 17.859 6.36559 17.3475 6.92473C16.7934 7.52688 16.4951 8.34409 16.4098 9.11828C18.8393 9.11828 21.2262 9.11828 23.6557 9.11828C23.5705 8.34409 23.3148 7.56989 22.8033 6.96774C22.4623 6.53763 21.9508 6.19355 21.4393 5.97849C20.8 5.76344 20.0328 5.76344 19.3082 5.89247Z" fill="var(--fill-0, black)"/>
<path id="Vector_6" d="M29.3672 4.98925C30.4754 4.3871 31.7967 4.25806 33.0328 4.55914C34.0131 4.8172 34.9082 5.41935 35.5475 6.23656C35.5475 5.72043 35.5475 5.2043 35.5475 4.68817C36.5705 4.68817 37.5934 4.68817 38.6164 4.68817C38.6164 5.16129 38.6164 5.5914 38.6164 6.06452C38.1475 6.06452 37.6787 6.06452 37.2098 6.06452C37.2098 8.64516 37.2098 11.1828 37.2098 13.7634C37.6787 13.7634 38.1475 13.7634 38.6164 13.7634C38.6164 14.2366 38.6164 14.6667 38.6164 15.1398C37.5934 15.1398 36.5705 15.1398 35.5475 15.1398C35.5475 14.6237 35.5475 14.1075 35.5475 13.5914C34.9082 14.4516 33.9705 15.0538 32.9049 15.3118C31.4984 15.6559 29.9213 15.3548 28.7705 14.4946C27.7475 13.7204 27.0229 12.5591 26.7672 11.3118C26.4688 9.97849 26.5967 8.55914 27.1934 7.35484C27.6197 6.32258 28.3869 5.50538 29.3672 4.98925ZM31.541 5.84946C30.5607 5.93548 29.6229 6.49462 29.0688 7.35484C28.3443 8.43011 28.1738 9.80645 28.4295 11.0538C28.6426 12.086 29.282 13.0753 30.2623 13.5914C31.4131 14.1935 32.9049 14.1505 33.9279 13.3763C34.482 12.9892 34.8656 12.4731 35.1639 11.828C35.5902 10.7957 35.6754 9.5914 35.377 8.51613C35.1213 7.52688 34.4393 6.58064 33.5016 6.10753C32.9049 5.89247 32.2229 5.76344 31.541 5.84946Z" fill="var(--fill-0, black)"/>
</g>
</svg>
