<svg preserveAspectRatio="none" width="100%" height="100%" overflow="visible" style="display: block;" viewBox="0 0 62.1522 16" fill="none" xmlns="http://www.w3.org/2000/svg">
<g id="Group">
<path id="Vector" d="M28.1738 0H28.8131C30.2197 0.0430108 31.6689 0.344086 32.9049 1.11828C33.9279 1.76344 34.6951 2.70968 35.1213 3.82796C35.4197 4.55914 35.5902 5.37634 35.6328 6.15054C34.0984 6.15054 32.5639 6.15054 31.0295 6.15054C30.9869 5.50538 30.7738 4.8172 30.2623 4.3871C29.7508 3.91398 29.0262 3.78495 28.3443 3.82796C27.7475 3.82796 27.1508 4.04301 26.7246 4.47312C26.2131 4.98925 25.9574 5.67742 25.8295 6.36559C25.659 7.18279 25.659 8.04301 25.7443 8.86021C25.8295 9.67742 26 10.5376 26.5115 11.1828C26.8951 11.6989 27.4492 12 28.0885 12.086C28.7279 12.172 29.4098 12.129 30.0066 11.828C30.4754 11.5699 30.8164 11.1398 30.9869 10.6667C31.1148 10.3656 31.1574 10.0215 31.2 9.67742C32.7344 9.67742 34.2262 9.67742 35.7607 9.67742C35.6754 11.0108 35.2918 12.3441 34.5246 13.4194C33.8 14.4086 32.777 15.0968 31.6262 15.5269C30.7738 15.828 29.8361 15.957 28.941 16H28.2164C26.9803 15.957 25.7443 15.6989 24.6361 15.1398C23.5279 14.5806 22.6328 13.7204 21.9934 12.6452C21.2262 11.3548 20.8852 9.80645 20.8426 8.34409C20.7574 6.70968 21.0131 5.11828 21.7377 3.74194C22.2918 2.62366 23.1443 1.67742 24.2098 1.07527C25.4033 0.344086 26.7672 0 28.1738 0Z" fill="var(--fill-0, #CC0000)"/>
<path id="Vector_2" d="M54.9836 0H55.6656C57.0295 0.0430108 58.4361 0.301075 59.5869 1.07527C60.1836 1.46237 60.6951 1.97849 61.0361 2.58065C61.4197 3.26882 61.6328 4 61.718 4.77419C60.1836 4.77419 58.6918 4.77419 57.1574 4.77419C57.1148 4.43011 56.9443 4.12903 56.7312 3.91398C56.4328 3.6129 55.9639 3.52688 55.5377 3.48387C55.1541 3.44086 54.7279 3.48387 54.3443 3.56989C54.0885 3.65591 53.8328 3.82796 53.7475 4.12903C53.6623 4.3871 53.6623 4.73118 53.8328 4.94624C53.9607 5.16129 54.2164 5.29032 54.4721 5.37634C54.8984 5.54839 55.3246 5.63441 55.7508 5.76344C56.6459 6.02151 57.541 6.19355 58.4361 6.45161C59.0328 6.62366 59.5869 6.83871 60.0984 7.13979C60.6525 7.48387 61.1639 7.95699 61.5475 8.51613C61.9311 9.07527 62.1016 9.76344 62.1443 10.4516C62.1869 11.2688 62.059 12.129 61.718 12.9032C61.4623 13.5054 61.0361 14.0645 60.5246 14.4946C59.5443 15.2688 58.3508 15.6559 57.1148 15.828C56.6459 15.871 56.2197 15.914 55.7508 15.914H55.0689C53.9607 15.871 52.8525 15.6989 51.8295 15.2258C50.8492 14.7957 49.9541 14.0215 49.4426 13.0753C49.059 12.3871 48.8459 11.5699 48.7607 10.7957C50.3377 10.7957 51.8721 10.7957 53.4492 10.7957C53.5344 11.1398 53.6623 11.5269 53.918 11.7849C54.1311 12 54.3869 12.172 54.6852 12.2151C55.0689 12.3011 55.4951 12.3441 55.8787 12.3011C56.2623 12.2581 56.6885 12.2151 57.0295 12C57.2426 11.871 57.4131 11.6129 57.4557 11.3548C57.4984 11.0968 57.4557 10.7957 57.2426 10.5806C57.0721 10.3656 56.7738 10.2796 56.518 10.1935C56.0492 10.0645 55.623 9.93548 55.1541 9.80645C54.3016 9.5914 53.4918 9.37634 52.6393 9.07527C52.0426 8.86022 51.4459 8.68817 50.8918 8.34409C50.2951 7.95699 49.7836 7.44086 49.4426 6.7957C49.1016 6.10753 48.9738 5.29032 48.9738 4.51613C49.0164 3.78495 49.1869 3.09677 49.5279 2.45161C49.8689 1.84946 50.3803 1.33333 50.9771 0.946237C52.1705 0.258065 53.5771 0.0430108 54.9836 0Z" fill="var(--fill-0, #CC0000)"/>
<path id="Vector_3" d="M3.79344 0.645161C4.17705 0.258065 4.73115 2.01146e-10 5.32787 2.01146e-10C5.92459 2.01146e-10 6.52131 0.215054 6.94754 0.645161C7.8 1.50538 8.69508 2.4086 9.54754 3.26882C10.4 2.4086 11.2951 1.50538 12.1475 0.645161C12.5311 0.258065 13.1279 2.01146e-10 13.682 2.01146e-10C14.2787 2.01146e-10 14.8328 0.215054 15.259 0.645161C16.3246 1.72043 17.3902 2.7957 18.4557 3.87097C18.882 4.30108 19.1377 4.94624 19.0951 5.54839C19.0525 6.10753 18.8393 6.62366 18.4557 7.01075C15.4721 9.97849 12.5311 12.9892 9.54754 15.957C6.56393 12.9892 3.62295 9.97849 0.639344 7.01075C0.255738 6.62366 0.0426229 6.10753 0 5.5914V5.24731C0.0426229 4.73118 0.255738 4.21505 0.639344 3.82796C1.70492 2.7957 2.72787 1.72043 3.79344 0.645161Z" fill="var(--fill-0, #CC0000)"/>
<path id="Vector_4" d="M34.6525 0.387097C36.2721 0.387097 37.9344 0.387097 39.5541 0.387097C40.4066 3.65591 41.2164 6.88172 42.0689 10.1505C42.9639 6.88172 43.859 3.65591 44.7541 0.387097C46.3311 0.387097 47.9082 0.387097 49.4852 0.387097C47.823 5.41935 46.118 10.4516 44.4131 15.4839C42.7934 15.4839 41.2164 15.4839 39.5967 15.4839C38.0197 10.4946 36.3574 5.46237 34.6525 0.387097Z" fill="var(--fill-0, #CC0000)"/>
</g>
</svg>
