<?xml version="1.0" encoding="UTF-8"?>
<svg id="Layer_2" data-name="Layer 2" xmlns="http://www.w3.org/2000/svg" viewBox="0 0 411.29 63.9">
  <g id="Layer_1-2" data-name="Layer 1">
    <g>
      <path d="M0,.9h12.96c4.26,0,7.72,1.4,10.4,4.19,2.67,2.79,4,6.52,4,11.21v31.41c0,4.74-1.34,8.51-4,11.3-2.67,2.79-6.14,4.18-10.4,4.18H0V.9ZM12.78,56.43c2.28,0,4.06-.76,5.35-2.29,1.29-1.53,1.93-3.76,1.93-6.71v-30.87c0-2.88-.65-5.08-1.93-6.62-1.29-1.53-3.08-2.29-5.35-2.29h-5.49v48.78h5.49Z" fill="#231f20"/>
      <path d="M56.38,34.38c1.17,1.86,1.75,4.11,1.75,6.75v8.37c0,3.96-1.25,7.23-3.73,9.81-2.49,2.58-5.75,3.87-9.77,3.87h-13.23V.9h11.88c4.02,0,7.27,1.28,9.77,3.83,2.49,2.55,3.73,5.8,3.73,9.76v6.12c0,4.68-1.83,7.89-5.49,9.63,2.22.9,3.92,2.28,5.08,4.14ZM38.7,7.65v19.8h4.32c1.98,0,3.56-.61,4.73-1.84,1.17-1.23,1.75-2.98,1.75-5.26v-5.58c0-2.28-.58-4.03-1.75-5.26-1.17-1.23-2.75-1.85-4.73-1.85h-4.32ZM50.85,41.4c0-2.28-.58-4.05-1.75-5.31s-2.75-1.89-4.73-1.89h-5.67v22.23h5.67c1.98,0,3.56-.63,4.73-1.89,1.17-1.26,1.75-3.03,1.75-5.31v-7.83Z" fill="#231f20"/>
      <path d="M61.29,28.35c0-4.08,1.2-7.42,3.6-10.04,2.4-2.61,5.52-3.92,9.36-3.92s6.94,1.31,9.32,3.92c2.37,2.61,3.55,5.96,3.55,10.04v13.14h-18.54v8.1c0,2.46.51,4.33,1.53,5.62,1.02,1.29,2.37,1.93,4.05,1.93s2.94-.64,3.96-1.93c1.02-1.29,1.53-3.16,1.53-5.62v-1.98h7.29v2.25c0,4.08-1.19,7.44-3.56,10.08-2.37,2.64-5.44,3.96-9.23,3.96s-6.87-1.3-9.27-3.92c-2.4-2.61-3.6-5.98-3.6-10.12v-21.51ZM79.83,34.74v-6.12c0-2.4-.51-4.24-1.53-5.54-1.02-1.29-2.37-1.94-4.05-1.94s-3.12.65-4.14,1.94c-1.02,1.29-1.53,3.14-1.53,5.54v6.12h11.25Z" fill="#231f20"/>
      <path d="M113.35,18.27c2.31,2.58,3.46,5.94,3.46,10.08v34.83h-4.95l-1.26-3.42h-.27c-2.34,2.76-5.16,4.14-8.46,4.14s-5.76-1.18-7.74-3.55c-1.98-2.37-2.97-5.5-2.97-9.41v-1.98c0-4.02,1.22-7.33,3.65-9.95,2.43-2.61,5.59-3.92,9.5-3.92h5.22v-6.48c0-2.4-.45-4.24-1.35-5.54-.9-1.29-2.13-1.94-3.69-1.94s-2.81.65-3.74,1.94c-.93,1.29-1.4,3.14-1.4,5.54v1.62h-7.29v-1.89c0-4.14,1.15-7.5,3.47-10.08,2.31-2.58,5.29-3.87,8.96-3.87s6.55,1.29,8.86,3.87ZM107.64,55.17c1.08-1.32,1.71-3,1.89-5.04v-8.28h-5.22c-1.8,0-3.23.65-4.27,1.94-1.05,1.29-1.58,3.08-1.58,5.35v.9c0,2.28.46,4.04,1.4,5.26.93,1.23,2.17,1.84,3.73,1.84s2.97-.66,4.05-1.98Z" fill="#231f20"/>
      <path d="M146.88,15.12l-11.25,48.06h-7.02l-11.25-48.06h7.83l6.93,36.45,7.02-36.45h7.74Z" fill="#231f20"/>
      <path d="M146.97,28.35c0-4.08,1.2-7.42,3.6-10.04,2.4-2.61,5.52-3.92,9.36-3.92s6.94,1.31,9.32,3.92c2.37,2.61,3.55,5.96,3.55,10.04v13.14h-18.54v8.1c0,2.46.51,4.33,1.53,5.62,1.02,1.29,2.37,1.93,4.05,1.93s2.94-.64,3.96-1.93c1.02-1.29,1.53-3.16,1.53-5.62v-1.98h7.29v2.25c0,4.08-1.19,7.44-3.55,10.08-2.37,2.64-5.45,3.96-9.23,3.96s-6.87-1.3-9.27-3.92c-2.4-2.61-3.6-5.98-3.6-10.12v-21.51ZM165.51,34.74v-6.12c0-2.4-.51-4.24-1.53-5.54-1.02-1.29-2.37-1.94-4.05-1.94s-3.12.65-4.14,1.94c-1.02,1.29-1.53,3.14-1.53,5.54v6.12h11.25Z" fill="#231f20"/>
      <path d="M177.39,15.12h4.95l1.26,3.15h.36c1.92-2.1,4.68-3.15,8.28-3.15h2.16v6.75h-3.87c-1.68,0-3.03.51-4.05,1.53s-1.62,2.49-1.8,4.41v35.37h-7.29V15.12Z" fill="#231f20"/>
      <path d="M207.72.9h27.99v6.75h-10.35v55.53h-7.29V7.65h-10.35V.9Z" fill="#231f20"/>
      <path d="M231.03,28.35c0-4.08,1.2-7.42,3.6-10.04,2.4-2.61,5.52-3.92,9.36-3.92s6.94,1.31,9.32,3.92c2.37,2.61,3.55,5.96,3.55,10.04v13.14h-18.54v8.1c0,2.46.51,4.33,1.53,5.62,1.02,1.29,2.37,1.93,4.05,1.93s2.94-.64,3.96-1.93c1.02-1.29,1.53-3.16,1.53-5.62v-1.98h7.29v2.25c0,4.08-1.19,7.44-3.56,10.08-2.37,2.64-5.44,3.96-9.22,3.96s-6.87-1.3-9.27-3.92c-2.4-2.61-3.6-5.98-3.6-10.12v-21.51ZM249.57,34.74v-6.12c0-2.4-.51-4.24-1.53-5.54-1.02-1.29-2.37-1.94-4.05-1.94s-3.12.65-4.14,1.94c-1.02,1.29-1.53,3.14-1.53,5.54v6.12h11.25Z" fill="#231f20"/>
      <path d="M279.18,28.62c0-2.4-.48-4.24-1.44-5.54-.96-1.29-2.25-1.94-3.87-1.94s-3.03.65-4.05,1.94c-1.02,1.29-1.53,3.14-1.53,5.54v20.97c0,2.46.51,4.33,1.53,5.62,1.02,1.29,2.37,1.93,4.05,1.93s2.94-.64,3.96-1.93c1.02-1.29,1.53-3.16,1.53-5.62v-1.98h7.29v2.25c0,4.08-1.19,7.44-3.55,10.08-2.37,2.64-5.45,3.96-9.23,3.96s-6.87-1.3-9.27-3.92c-2.4-2.61-3.6-5.98-3.6-10.12v-21.51c0-4.08,1.2-7.42,3.6-10.04,2.4-2.61,5.49-3.92,9.27-3.92s6.83,1.31,9.14,3.92c2.31,2.61,3.46,5.96,3.46,10.04v1.89h-7.29v-1.62Z" fill="#231f20"/>
      <path d="M313.2,18c1.98,2.4,2.97,5.58,2.97,9.54v35.64h-7.29V28.44c0-2.34-.48-4.14-1.44-5.4-.96-1.26-2.25-1.89-3.87-1.89s-3.06.62-4.14,1.85c-1.08,1.23-1.71,2.83-1.89,4.81v35.37h-7.29V0h7.29v17.46c2.22-2.04,4.83-3.06,7.83-3.06,3.24,0,5.85,1.2,7.83,3.6Z" fill="#231f20"/>
      <path d="M350.1,33.3h-3.96v29.88h-7.29V.9h7.29v25.65h4.05l7.38-25.65h7.83l-9.27,28.98,11.07,33.3h-8.1l-9-29.88Z" fill="#231f20"/>
      <path d="M366.48,15.12h5.31v-4.59c0-3.36.96-5.95,2.88-7.78,1.92-1.83,4.65-2.75,8.19-2.75h4.23v6.75h-3.42c-3.06,0-4.59,1.62-4.59,4.86v3.51h7.74v6.75h-7.74v41.31h-7.29V21.87h-5.31v-6.75Z" fill="#231f20"/>
      <path d="M396.35,15.12V5.94l7.29-1.89v11.07h7.56v6.75h-7.56v29.16c0,1.8.42,3.15,1.26,4.05.84.9,2.07,1.35,3.69,1.35h2.7v6.75h-3.42c-3.48,0-6.27-1.02-8.37-3.06-2.1-2.04-3.15-4.77-3.15-8.19v-30.06h-5.49v-6.75h5.49Z" fill="#231f20"/>
    </g>
  </g>
</svg>