<svg preserveAspectRatio="none" width="100%" height="100%" overflow="visible" style="display: block;" viewBox="0 0 110 24" fill="none" xmlns="http://www.w3.org/2000/svg">
<g id="Layer_1" clip-path="url(#clip0_44_694)">
<g id="Vector">
</g>
<path id="Vector_2" d="M14.1066 2.9715C14.1733 2.93253 14.2484 2.89108 14.3319 2.84713C14.3049 2.8604 14.2787 2.87284 14.2509 2.88693C14.2062 2.91015 14.1572 2.93916 14.1066 2.9715Z" fill="var(--fill-0, white)"/>
<path id="Vector_3" d="M15.4024 2.46658C15.3602 2.4757 15.3172 2.48565 15.2725 2.49642C15.3147 2.4873 15.3568 2.47736 15.4024 2.46658Z" fill="var(--fill-0, white)"/>
<path id="Vector_4" d="M8.10022 14.9479C8.42079 11.1937 10.3189 8.08291 10.3189 8.08291C9.98819 7.99254 9.74945 7.79521 9.60604 7.49508C9.26185 8.13763 7.11321 12.2997 7.23469 15.9013C7.36713 19.8164 9.82959 21.7722 9.82959 21.7722C9.40611 21.3577 7.77881 18.702 8.09938 14.947L8.10022 14.9479Z" fill="var(--fill-0, white)"/>
<path id="Vector_5" d="M17.0845 9.72619C17.2727 9.79998 17.5299 9.75521 17.74 9.68639C17.902 9.41196 18.0918 8.99409 18.2141 8.40958C18.2141 8.40958 18.3077 8.51238 18.2141 8.90289C18.1365 9.2279 18.0935 9.42025 18.0344 9.567C18.1922 9.51145 18.2605 9.54959 18.479 9.07617C18.7262 8.53892 19.0788 7.36159 19.0788 7.36159C18.5406 7.95025 17.9264 8.40958 16.7741 8.33164C16.7741 8.40128 16.8188 9.62172 17.0837 9.72536L17.0845 9.72619Z" fill="var(--fill-0, white)"/>
<path id="Vector_6" d="M13.5946 0.981656C12.1697 1.7693 10.7651 3.55353 10.0633 5.56078C9.99747 5.74816 9.94685 5.9231 9.90805 6.08478C9.90805 6.0856 9.90805 6.08726 9.90805 6.08809C9.53433 7.66007 10.3197 8.08291 10.3197 8.08291C10.3197 8.08291 11.6931 8.718 12.1697 8.23712C10.1594 7.94777 10.6605 6.93792 11.1726 6.03088C11.4324 5.5699 12.4498 4.39838 13.3221 3.60162C13.4351 3.39517 13.4638 3.11742 13.3525 2.88776C13.1053 2.3762 13.2968 1.96497 13.657 1.88786C13.997 1.8149 14.4643 1.90113 14.7562 2.22531C14.887 2.3704 15.2953 2.42429 15.4927 2.44917C15.4893 2.44917 15.4851 2.45082 15.4809 2.45165C16.0832 2.3505 16.5159 2.45497 17.125 2.35216C17.6017 2.16976 18.204 2.05949 18.6941 2.03959C18.3508 1.52803 17.9442 1.09027 17.5063 0.767748C16.1979 0.228832 15.0067 0.202301 13.5963 0.982485L13.5946 0.981656Z" fill="var(--fill-0, white)"/>
<path id="Vector_7" d="M18.4874 4.41994C17.7898 4.61892 16.0604 3.53695 16.343 2.91346C16.4459 2.68629 16.7454 2.49642 17.1225 2.35216C16.5134 2.45497 16.0815 2.34967 15.4783 2.45165C15.4539 2.45663 15.4277 2.4616 15.4016 2.46741C15.3568 2.47818 15.3138 2.48813 15.2716 2.49725C15.0017 2.56441 14.682 2.67468 14.331 2.84879C14.2475 2.89274 14.1724 2.93419 14.1058 2.97316C13.8814 3.11576 13.6089 3.33796 13.3196 3.60245C12.4473 4.39921 11.4299 5.57073 11.1701 6.03171C10.658 6.93958 10.1569 7.9486 12.1672 8.23795C11.6906 8.71883 10.3172 8.08374 10.3172 8.08374C10.3172 8.08374 8.4191 11.1945 8.09853 14.9487C7.77797 18.7029 9.40442 21.3593 9.82875 21.7739C9.82875 21.7739 9.11422 19.7732 9.03408 18.2154C8.95478 16.6566 9.37827 15.7214 9.37827 15.7214C9.37827 15.7214 9.88105 17.15 11.7614 18.5271C13.641 19.9042 13.5355 19.0984 13.6148 18.9425C13.6941 18.7866 13.5887 17.8771 13.1913 16.8905C12.794 15.903 12.4768 15.3574 12.3705 13.3577C12.2642 11.357 13.2968 9.95502 13.7734 9.0455C14.0746 8.47093 13.873 7.55394 13.6831 6.95699C13.6258 6.81936 13.5726 6.67095 13.5245 6.50928C13.49 6.42139 13.4672 6.36999 13.4672 6.36999C13.4672 6.36999 13.4765 6.38076 13.4942 6.39983C13.4655 6.29703 13.4385 6.19007 13.414 6.07731C13.959 6.62286 15.8655 7.98093 17.2187 7.84827C18.5718 7.71645 18.7253 5.22666 18.7253 5.22666C19.0974 5.81946 18.8367 6.90144 18.7675 7.15763C18.8333 7.10623 18.9354 7.02995 19.0957 6.91471C19.784 6.42139 20.1333 5.04425 20.1333 5.04425C20.0515 4.03441 19.7689 3.40595 19.509 3.02539C19.2964 3.63229 18.819 4.32625 18.4874 4.42077V4.41994Z" fill="var(--fill-0, #7F6C5F)"/>
<path id="Vector_8" d="M16.343 2.91346C16.0604 3.53695 17.7906 4.61892 18.4874 4.41994C18.8198 4.32542 19.2964 3.63146 19.509 3.02456C19.66 2.59343 19.6777 2.20541 19.4137 2.10841C19.2517 2.04871 18.9927 2.02715 18.6916 2.03959C18.2015 2.05949 17.5991 2.16976 17.1225 2.35216C16.7454 2.49642 16.4459 2.68629 16.343 2.91346Z" fill="var(--fill-0, #302320)"/>
<path id="Vector_9" d="M14.2517 2.88693C14.2787 2.87284 14.3057 2.8604 14.3327 2.84713C14.6837 2.67385 15.0034 2.56275 15.2733 2.4956C15.318 2.48482 15.3611 2.47487 15.4032 2.46575C15.4294 2.45994 15.4555 2.45497 15.48 2.44999C15.4834 2.44999 15.4876 2.44834 15.4918 2.44751C15.2944 2.42263 14.8861 2.36874 14.7554 2.22365C14.4635 1.89947 13.9961 1.81242 13.6562 1.88621C13.2959 1.96414 13.1044 2.37538 13.3516 2.8861C13.463 3.11576 13.4343 3.39351 13.3212 3.59996C13.6106 3.33547 13.8831 3.11328 14.1075 2.97067C14.1581 2.93834 14.207 2.90932 14.2517 2.8861V2.88693Z" fill="var(--fill-0, #302320)"/>
<path id="Vector_10" d="M20.1341 6.16022C20.2058 5.61965 20.1527 5.21505 20.1375 5.11804C20.135 5.10312 20.1341 5.09483 20.1341 5.09483C20.1341 5.09483 20.1316 5.12468 20.1265 5.17691L20.1341 5.04259C20.1341 5.04259 19.7849 6.41973 19.0965 6.91305C18.9362 7.02746 18.8341 7.10457 18.7683 7.15597C18.8375 6.89895 19.0974 5.81698 18.7262 5.225C18.7262 5.225 18.5718 7.71396 17.2195 7.84662C15.8664 7.97844 13.9607 6.62037 13.4149 6.07566C13.4393 6.18924 13.4663 6.29537 13.495 6.39818C13.4773 6.37911 13.468 6.36833 13.468 6.36833C13.468 6.36833 13.4908 6.41973 13.5254 6.50762C13.5735 6.67012 13.6275 6.81853 13.684 6.95533C13.8738 7.55228 14.0754 8.46927 13.7743 9.04384C13.2976 9.95336 12.2651 11.3562 12.3714 13.356C12.4776 15.3566 12.7948 15.9022 13.1922 16.8888C13.5895 17.8763 13.695 18.785 13.6157 18.9408C13.5364 19.0967 13.6418 19.9018 11.7623 18.5254C9.88274 17.1483 9.37911 15.7198 9.37911 15.7198C9.37911 15.7198 8.95563 16.655 9.03493 18.2137C9.11422 19.7724 9.82959 21.7722 9.82959 21.7722C9.82959 21.7722 7.36713 19.8164 7.23469 15.9013C7.11321 12.2989 9.26185 8.1368 9.60604 7.49508C9.74861 7.79438 9.98819 7.99171 10.3189 8.08291C10.3189 8.08291 9.53349 7.66007 9.90721 6.08809C9.90721 6.08726 9.90721 6.0856 9.90721 6.08478C9.94601 5.92227 9.99663 5.74816 10.0624 5.56078C10.7643 3.55436 12.1689 1.7693 13.5937 0.981656C15.0042 0.201472 16.1954 0.228832 17.5038 0.766919C17.5165 0.771893 17.5291 0.776868 17.5418 0.782672C17.5418 0.782672 15.8115 -0.81169 13.5161 0.549694C12.1967 1.33237 11.3185 2.20043 10.7145 3.09089C10.2075 3.1796 9.5917 3.09918 9.34115 3.09918C9.02565 3.09918 8.53805 3.30894 8.75823 4.07006C8.97419 4.81542 9.56892 5.56824 9.52084 5.99192C9.46685 6.29039 9.44323 6.55819 9.45166 6.79532C9.14797 7.2679 7.72819 9.53715 7.29543 11.3404C7.29543 11.3404 8.10697 3.37942 5.61836 2.01637C3.13143 0.653332 1.1262 1.7436 0.45723 3.53695C-0.972668 7.36822 1.1456 13.356 4.13784 18.188C7.13008 23.02 9.96457 23.8939 11.9749 23.9809C15.3374 24.1269 14.358 23.4097 15.5753 23.3317C16.7935 23.2538 16.6079 23.9809 18.6199 23.6957C20.0894 23.4868 20.3408 22.5267 19.7849 22.0848C19.229 21.6429 19.4145 20.604 19.9435 18.3704C20.4733 16.136 19.714 12.2035 19.1842 11.1904C18.6545 10.1772 18.7076 9.66152 19.2728 8.66162C19.8262 7.68328 20.0143 7.0598 20.1341 6.16022ZM19.0788 7.36242C19.0788 7.36242 18.7262 8.53974 18.479 9.077C18.2613 9.55042 18.1922 9.51228 18.0344 9.56783C18.0935 9.42108 18.1365 9.22873 18.2141 8.90372C18.3077 8.51321 18.2141 8.4104 18.2141 8.4104C18.0918 8.99492 17.9011 9.41279 17.74 9.68722C17.5299 9.75604 17.2727 9.80081 17.0845 9.72702C16.8196 9.62338 16.7749 8.40211 16.7749 8.3333C17.9273 8.41123 18.5406 7.95191 19.0796 7.36325L19.0788 7.36242Z" fill="var(--fill-0, #302320)"/>
<path id="Vector_11" d="M29.9342 5.28469H25.2834V21.1893H29.9342C31.3945 21.1893 32.5823 20.0236 32.5823 18.5918V7.88227C32.5823 6.44958 31.3945 5.28469 29.9342 5.28469ZM29.3825 19.2774H27.4743V7.1966H29.3825C30.0515 7.1966 30.3914 7.68162 30.3914 8.42367V18.0495C30.3914 18.809 30.0979 19.2774 29.3825 19.2774Z" fill="var(--fill-0, #D14827)"/>
<path id="Vector_12" d="M40.4665 12.2923C40.75 11.8678 40.9043 11.3769 40.9043 10.8737V7.8831C40.9043 6.45538 39.7562 5.31454 38.2782 5.28552H34.1336C34.1336 5.28552 34.1311 5.85429 34.1336 7.38895C34.1404 10.9914 34.1336 21.1902 34.1336 21.1902H38.8645C39.2323 21.1902 39.6929 21.0069 39.6929 21.0069C40.6875 20.6115 41.3658 19.6663 41.3658 18.5926V14.1362C41.3658 13.4596 41.0275 12.7897 40.4657 12.2931L40.4665 12.2923ZM36.3253 7.1966H37.7046C38.3331 7.1966 38.7135 7.70401 38.7135 8.42367V10.3314C38.7135 11.1804 38.4022 11.5585 37.7046 11.5585H36.3253V7.1966ZM39.1758 18.0504C39.1758 18.7866 38.7473 19.2783 38.1669 19.2783H36.3253V13.4721H38.0353C38.6789 13.4721 39.1758 13.9123 39.1758 14.6776V18.0504Z" fill="var(--fill-0, #312320)"/>
<path id="Vector_13" d="M46.8433 9.37714H44.3994C43.3162 9.37714 42.4346 10.2518 42.4346 11.3264V19.2609C42.4346 20.3238 43.3162 21.1885 44.3994 21.1885H48.8308C48.8308 21.1885 48.8308 19.2799 47.368 19.2766C46.8061 19.2758 45.7736 19.2766 45.1586 19.2766C44.8692 19.2517 44.6381 19.0312 44.6035 18.7501V16.2189H48.8308V11.3255C48.8308 10.2502 47.9391 9.37631 46.8433 9.37631V9.37714ZM44.6035 14.3086V11.8114C44.6364 11.5428 44.8498 11.3297 45.1206 11.289H46.1169C46.4122 11.3322 46.6391 11.5817 46.6391 11.8835V14.3078H44.6027L44.6035 14.3086Z" fill="var(--fill-0, #312320)"/>
<path id="Vector_14" d="M93.4883 9.37714H91.0444C89.9612 9.37714 89.0796 10.2518 89.0796 11.3264V19.2609C89.0796 20.3238 89.9612 21.1885 91.0444 21.1885H95.4758C95.4758 21.1885 95.4758 19.2799 94.013 19.2766C93.4512 19.2758 92.4186 19.2766 91.8036 19.2766C91.5143 19.2517 91.2831 19.0312 91.2485 18.7501V16.2189H95.4758V11.3255C95.4758 10.2502 94.5841 9.37631 93.4883 9.37631V9.37714ZM91.2485 14.3086V11.8114C91.2814 11.5428 91.4949 11.3297 91.7657 11.289H92.7619C93.0572 11.3322 93.2841 11.5817 93.2841 11.8835V14.3078H91.2477L91.2485 14.3086Z" fill="var(--fill-0, #312320)"/>
<path id="Vector_15" d="M54.2779 9.37714H51.7159C50.2176 9.37714 50.1974 11.289 50.1974 11.289H53.5558C53.8291 11.3288 54.0425 11.5452 54.0737 11.8164V13.186H51.834C50.7508 13.186 49.8692 14.0508 49.8692 15.1137V19.2609C49.8692 20.3238 50.7508 21.1885 51.834 21.1885H56.2654V11.3255C56.2654 10.2502 55.3737 9.37631 54.2787 9.37631L54.2779 9.37714ZM54.0737 19.2783H52.6067C52.2937 19.2575 52.0466 19.0063 52.0373 18.6954V15.6874C52.0373 15.3956 52.2499 15.1527 52.5308 15.0988H54.0737V19.2783Z" fill="var(--fill-0, #312320)"/>
<path id="Vector_16" d="M108.034 9.39869H105.795V7.46026C105.795 5.5898 103.604 5.5898 103.604 5.5898V21.1885H105.795V11.3098H107.338C107.619 11.3645 107.831 11.6066 107.832 11.8984V21.1885H110V11.3255C110 10.2626 109.118 9.39786 108.035 9.39786L108.034 9.39869Z" fill="var(--fill-0, #312320)"/>
<path id="Vector_17" d="M59.962 16.4759L58.6038 9.37714H56.5016L58.7371 21.1902H61.1355L63.371 9.37714H61.3354L59.962 16.4759Z" fill="var(--fill-0, #312320)"/>
<path id="Vector_18" d="M75.0953 9.37714C75.0068 9.37714 74.8591 9.37548 74.6862 9.37382C74.056 9.36719 73.5144 9.36221 73.2554 9.37962C72.1495 9.47497 71.3472 10.2941 71.3472 11.3264V21.1893H73.5161C73.5161 21.1893 73.5431 14.69 73.5161 11.9813C73.5161 11.9341 73.5153 11.8901 73.5153 11.8487C73.5254 11.5245 73.7953 11.265 74.1286 11.265H74.1075C74.5596 11.2517 74.7579 11.2385 74.9814 11.2368C76.1549 11.2285 76.1549 9.37714 76.1549 9.37714H75.0962H75.0953Z" fill="var(--fill-0, #312320)"/>
<path id="Vector_19" d="M68.2656 9.37714H65.8217C64.7385 9.37714 63.8569 10.2518 63.8569 11.3264V19.2609C63.8569 20.3238 64.7385 21.1885 65.8217 21.1885H70.2531C70.2531 21.1885 70.2531 19.2799 68.7903 19.2766C68.2284 19.2758 67.1959 19.2766 66.5809 19.2766C66.2915 19.2517 66.0604 19.0312 66.0258 18.7501V16.2189H70.2531V11.3255C70.2531 10.2502 69.3614 9.37631 68.2656 9.37631V9.37714ZM66.0258 14.3086V11.8114C66.0587 11.5428 66.2721 11.3297 66.5429 11.289H67.5392C67.8345 11.3322 68.0614 11.5817 68.0614 11.8835V14.3078H66.025L66.0258 14.3086Z" fill="var(--fill-0, #312320)"/>
<path id="Vector_20" d="M98.7152 18.751V11.8164C98.7464 11.5452 98.9607 11.3297 99.2332 11.289H102.592C102.592 11.289 102.571 9.37714 101.073 9.37714H98.5111C97.4152 9.37714 96.5244 10.2518 96.5244 11.3264V19.2393C96.5244 20.3146 97.4161 21.1885 98.5111 21.1885H101.073C102.571 21.1885 102.592 19.2766 102.592 19.2766H99.2332C98.9599 19.2368 98.7464 19.0204 98.7152 18.7493V18.751Z" fill="var(--fill-0, #312320)"/>
<path id="Vector_21" d="M81.4037 5.29464V7.15432C81.4037 7.15432 84.5883 7.16841 85.0405 7.18251H85.0194C85.3062 7.18251 85.5458 7.37652 85.6133 7.63768V21.2117H87.7822C87.7822 21.2117 87.7822 21.2034 87.7822 21.191H87.7999V7.65758C87.8674 7.39641 88.1061 7.2024 88.3938 7.2024H88.3727C88.8249 7.18914 92.0095 7.17421 92.0095 7.17421V5.31454L81.4046 5.29381L81.4037 5.29464Z" fill="var(--fill-0, #312320)"/>
</g>
<defs>
<clipPath id="clip0_44_694">
<rect width="110" height="24" fill="white"/>
</clipPath>
</defs>
</svg>
