<?xml version="1.0" encoding="UTF-8"?>
<svg id="Layer_1" data-name="Layer 1" xmlns="http://www.w3.org/2000/svg" viewBox="0 0 1303.94 311.81">
  <path d="M117.44,84.6s0-.03,0-.04c0,.01,0,.03,0,.04Z" fill="#fff"/>
  <path d="M167.22,47.01c.79-.47,1.68-.97,2.67-1.5-.32.16-.63.31-.96.48-.53.28-1.11.63-1.71,1.02Z" fill="#fff"/>
  <path d="M182.58,40.92c-.5.11-1.01.23-1.54.36.5-.11,1-.23,1.54-.36Z" fill="#fff"/>
  <path d="M96.02,191.46c3.8-45.28,26.3-82.8,26.3-82.8-3.92-1.09-6.75-3.47-8.45-7.09-4.08,7.75-29.55,57.95-28.11,101.39,1.57,47.22,30.76,70.81,30.76,70.81-5.02-5-24.31-37.03-20.51-82.32Z" fill="#fff"/>
  <path d="M193.73,46.31c-3.35,7.52,17.16,20.57,25.42,18.17,3.94-1.14,9.59-9.51,12.11-16.83,1.79-5.2,2-9.88-1.13-11.05-1.92-.72-4.99-.98-8.56-.83-5.81.24-12.95,1.57-18.6,3.77-4.47,1.74-8.02,4.03-9.24,6.77Z" fill="#fff"/>
  <path d="M168.94,45.99c.32-.17.64-.32.96-.48,4.16-2.09,7.95-3.43,11.15-4.24.53-.13,1.04-.25,1.54-.36.31-.07.62-.13.91-.19.04,0,.09-.02.14-.03-2.34-.3-7.18-.95-8.73-2.7-3.46-3.91-9-4.96-13.03-4.07-4.27.94-6.54,5.9-3.61,12.06,1.32,2.77.98,6.12-.36,8.61,3.43-3.19,6.66-5.87,9.32-7.59.6-.39,1.18-.74,1.71-1.02Z" fill="#fff"/>
  <path d="M238.67,85.47c.85-6.52.22-11.4.04-12.57-.03-.18-.04-.28-.04-.28,0,0-.03.36-.09.99l.09-1.62s-4.14,16.61-12.3,22.56c-1.9,1.38-3.11,2.31-3.89,2.93.82-3.1,3.9-16.15-.5-23.29,0,0-1.83,30.02-17.86,31.62-16.04,1.59-38.63-14.79-45.1-21.36.29,1.37.61,2.65.95,3.89-.21-.23-.32-.36-.32-.36,0,0,.27.62.68,1.68.57,1.96,1.21,3.75,1.88,5.4,2.25,7.2,4.64,18.26,1.07,25.19-5.65,10.97-17.89,27.89-16.63,52.01,1.26,24.13,5.02,30.71,9.73,42.61,4.71,11.91,5.96,22.87,5.02,24.75-.94,1.88.31,11.59-21.97-5.01-22.28-16.61-28.25-33.84-28.25-33.84,0,0-5.02,11.28-4.08,30.08.94,18.8,9.42,42.92,9.42,42.92,0,0-29.19-23.59-30.76-70.81-1.44-43.45,24.03-93.65,28.11-101.39,1.69,3.61,4.53,5.99,8.45,7.09,0,0-9.31-5.1-4.88-24.06,0-.01,0-.03,0-.04.46-1.96,1.06-4.06,1.84-6.32,8.32-24.2,24.97-45.73,41.86-55.23,16.72-9.41,30.84-9.08,46.35-2.59.15.06.3.12.45.19,0,0-20.51-19.23-47.72-2.81-15.64,9.44-26.05,19.91-33.21,30.65-6.01,1.07-13.31.1-16.28.1-3.74,0-9.52,2.53-6.91,11.71,2.56,8.99,9.61,18.07,9.04,23.18-.64,3.6-.92,6.83-.82,9.69-3.6,5.7-20.43,33.07-25.56,54.82,0,0,9.62-96.02-19.88-112.46-29.5-16.45-53.27-3.29-61.2,18.33-16.95,46.21,8.16,118.43,43.63,176.71,35.47,58.28,69.07,68.82,92.9,69.87,39.86,1.76,28.25-6.89,42.68-7.83,14.44-.94,12.24,7.83,36.09,4.39,17.42-2.52,20.4-14.1,13.81-19.43-6.59-5.33-4.39-17.86,1.88-44.8,6.28-26.95-2.72-74.38-9-86.6-6.28-12.22-5.65-18.44,1.05-30.5,6.56-11.8,8.79-19.32,10.21-30.17ZM226.16,99.97s-4.18,14.2-7.11,20.68c-2.58,5.71-3.4,5.25-5.27,5.92.7-1.77,1.21-4.09,2.13-8.01,1.11-4.71,0-5.95,0-5.95-1.45,7.05-3.71,12.09-5.62,15.4-2.49.83-5.54,1.37-7.77.48-3.14-1.25-3.67-15.98-3.67-16.81,13.66.94,20.93-4.6,27.32-11.7Z" fill="#fff"/>
  <path d="M354.84,74.91h-55.13v191.83h55.13c17.31,0,31.39-14.06,31.39-31.33V106.24c0-17.28-14.08-31.33-31.39-31.33ZM348.3,243.68h-22.62V97.97h22.62c7.93,0,11.96,5.85,11.96,14.8v116.1c0,9.16-3.48,14.81-11.96,14.81Z" fill="#fff"/>
  <path d="M479.69,159.43c3.36-5.12,5.19-11.04,5.19-17.11v-36.07c0-17.22-13.61-30.98-31.13-31.33h-49.13s-.03,6.86,0,25.37c.08,43.45,0,166.46,0,166.46h56.08c4.36,0,9.82-2.21,9.82-2.21,11.79-4.77,19.83-16.17,19.83-29.12v-53.75c0-8.16-4.01-16.24-10.67-22.23ZM430.6,97.97h16.35c7.45,0,11.96,6.12,11.96,14.8v23.01c0,10.24-3.69,14.8-11.96,14.8h-16.35v-52.61ZM464.39,228.88c0,8.88-5.08,14.81-11.96,14.81h-21.83v-70.03h20.27c7.63,0,13.52,5.31,13.52,14.54v40.68Z" fill="#fff"/>
  <path d="M555.28,124.27h-28.97c-12.84,0-23.29,10.55-23.29,23.51v95.7c0,12.82,10.45,23.25,23.29,23.25h52.53s0-23.02-17.34-23.06c-6.66-.01-18.9,0-26.19,0-3.43-.3-6.17-2.96-6.58-6.35v-30.53h50.11v-59.02c0-12.97-10.57-23.51-23.56-23.51ZM528.73,183.75v-30.12c.39-3.24,2.92-5.81,6.13-6.3h11.81c3.5.52,6.19,3.53,6.19,7.17v29.24h-24.14Z" fill="#fff"/>
  <path d="M1108.21,124.27h-28.97c-12.84,0-23.29,10.55-23.29,23.51v95.7c0,12.82,10.45,23.25,23.29,23.25h52.53s0-23.02-17.34-23.06c-6.66-.01-18.9,0-26.19,0-3.43-.3-6.17-2.96-6.58-6.35v-30.53h50.11v-59.02c0-12.97-10.57-23.51-23.56-23.51ZM1081.66,183.75v-30.12c.39-3.24,2.92-5.81,6.13-6.3h11.81c3.5.52,6.19,3.53,6.19,7.17v29.24h-24.14Z" fill="#fff"/>
  <path d="M643.41,124.27h-30.37c-17.76,0-18,23.06-18,23.06h39.81c3.24.48,5.77,3.09,6.14,6.36v16.52h-26.55c-12.84,0-23.29,10.43-23.29,23.25v50.02c0,12.82,10.45,23.25,23.29,23.25h52.53v-118.96c0-12.97-10.57-23.51-23.55-23.51ZM640.99,243.69h-17.39c-3.71-.25-6.64-3.28-6.75-7.03v-36.28c0-3.52,2.52-6.45,5.85-7.1h18.29v50.41Z" fill="#fff"/>
  <path d="M1280.64,124.53h-26.55v-23.38c0-22.56-25.97-22.56-25.97-22.56v188.14h25.97v-119.15h18.29c3.34.66,5.85,3.58,5.86,7.1v112.05s25.7,0,25.7,0v-118.96c0-12.82-10.45-23.25-23.29-23.25Z" fill="#fff"/>
  <polygon points="710.79 209.89 694.69 124.27 669.77 124.27 696.27 266.74 724.7 266.74 751.2 124.27 727.07 124.27 710.79 209.89" fill="#fff"/>
  <path d="M890.18,124.27c-1.05,0-2.8-.02-4.85-.04-7.47-.08-13.89-.14-16.96.07-13.11,1.15-22.62,11.03-22.62,23.48v118.96h25.71s.32-78.39,0-111.06c0-.57-.01-1.1-.01-1.6.12-3.91,3.32-7.04,7.27-7.04h-.25c5.36-.16,7.71-.32,10.36-.34,13.91-.1,13.91-22.43,13.91-22.43h-12.55Z" fill="#fff"/>
  <path d="M809.22,124.27h-28.97c-12.84,0-23.29,10.55-23.29,23.51v95.7c0,12.82,10.45,23.25,23.29,23.25h52.53s0-23.02-17.34-23.06c-6.66-.01-18.9,0-26.19,0-3.43-.3-6.17-2.96-6.58-6.35v-30.53h50.11v-59.02c0-12.97-10.57-23.51-23.56-23.51ZM782.67,183.75v-30.12c.39-3.24,2.92-5.81,6.13-6.3h11.81c3.5.52,6.19,3.53,6.19,7.17v29.24h-24.14Z" fill="#fff"/>
  <path d="M1170.17,237.33v-83.64c.37-3.27,2.91-5.87,6.14-6.36h39.81s-.24-23.06-18-23.06h-30.37c-12.99,0-23.55,10.55-23.55,23.51v95.44c0,12.97,10.57,23.51,23.55,23.51h30.37c17.76,0,18-23.06,18-23.06h-39.81c-3.24-.48-5.77-3.09-6.14-6.36Z" fill="#fff"/>
  <path d="M964.96,75.03v22.43s37.75.17,43.11.34h-.25c3.4,0,6.24,2.34,7.04,5.49v163.72h25.71s0-.1,0-.25h.21V103.53c.8-3.15,3.63-5.49,7.04-5.49h-.25c5.36-.16,43.11-.34,43.11-.34v-22.43l-125.71-.25Z" fill="#fff"/>
</svg>