<?xml version="1.0" encoding="UTF-8"?>
<svg id="Layer_2" data-name="Layer 2" xmlns="http://www.w3.org/2000/svg" viewBox="0 0 370.43 64.53">
  <g id="Layer_1-2" data-name="Layer 1">
    <g>
      <path d="M0,.81h11.88c1.08,0,1.98.18,2.97.45,5.13,1.26,9,5.94,9,11.52v39.15c0,5.58-3.87,10.26-9,11.52-.99.27-1.89.36-2.97.36H0V.81ZM9,9.36v45.9h5.85V9.36h-5.85Z" fill="#231f20"/>
      <path d="M25.65.81h14.85c4.95,0,9,4.05,9,9v8.28c0,4.77-3.69,8.64-8.28,9v.99h1.08c3.96,0,7.2,3.24,7.2,7.2v21.33c0,3.96-3.24,7.2-7.2,7.2h-16.65V.81ZM34.65,9.36v14.4h3.51c1.26,0,2.34-.99,2.34-2.34v-12.06h-5.85ZM40.5,55.26v-20.52c0-1.26-1.08-2.34-2.34-2.34h-3.51v22.86h5.85Z" fill="#231f20"/>
      <path d="M72,9.36h-11.7v18.45h8.01v8.55h-8.01v18.9h11.7v8.55h-20.7V.81h20.7v8.55Z" fill="#231f20"/>
      <path d="M97.65,63.81h-9l-.27-8.55h-5.31l-.27,8.55h-9L78.12.81h15.21l4.32,63ZM88.11,46.62l-1.35-37.26h-2.07l-1.26,37.26h4.68Z" fill="#231f20"/>
      <path d="M115.38,63.81h-15.21L95.85.81h9l1.89,54.45h2.07l1.89-54.45h9l-4.32,63Z" fill="#231f20"/>
      <path d="M142.2,9.36h-11.7v18.45h8.01v8.55h-8.01v18.9h11.7v8.55h-20.7V.81h20.7v8.55Z" fill="#231f20"/>
      <path d="M144,.81h16.65c3.96,0,7.2,3.24,7.2,7.2v30.06c0,3.24-1.71,5.94-5.31,6.84l4.95,18.81h-9.72l-3.51-20.25-1.26-.36v20.7h-9V.81ZM153,9.36v31.5h5.85V9.36h-5.85Z" fill="#231f20"/>
      <path d="M208.97,9.36h-6.12v54.45h-9V9.36h-6.21V.81h21.33v8.55Z" fill="#231f20"/>
      <path d="M231.47,9.36h-11.7v18.45h8.01v8.55h-8.01v18.9h11.7v8.55h-20.7V.81h20.7v8.55Z" fill="#231f20"/>
      <path d="M248.21,9.63h-5.94v.09h-.09l.09,45.54h5.94v-9.99h9v7.29c0,5.58-3.87,10.35-9,11.61-.99.27-1.89.36-2.97.36s-1.98-.09-3.06-.36c-5.04-1.26-8.91-6.03-8.91-11.61V11.88c0-5.67,3.87-10.26,8.91-11.61,1.08-.27,1.98-.27,3.06-.27s1.98,0,2.97.27c5.13,1.35,9,5.94,9,11.61v9.99h-9v-12.24Z" fill="#231f20"/>
      <path d="M281.15,63.81h-9v-16.92h-4.14v16.92h-9V.81h9v37.53h4.14V.81h9v63Z" fill="#231f20"/>
      <path d="M318.05,32.31l6.75,31.5h-9l-3.78-29.7h-2.07v29.7h-9V.81h9v29.16h2.16l3.69-29.16h9l-6.75,31.5Z" fill="#231f20"/>
      <path d="M347.3,9.36h-11.7v28.98h8.73v8.55h-8.73v16.92h-9V.81h20.7v8.55Z" fill="#231f20"/>
      <path d="M370.43,9.36h-6.12v54.45h-9V9.36h-6.21V.81h21.33v8.55Z" fill="#231f20"/>
    </g>
  </g>
</svg>