<?xml version="1.0" encoding="UTF-8"?>
<svg id="Layer_1" data-name="Layer 1" xmlns="http://www.w3.org/2000/svg" viewBox="0 0 1402.94 311.81">
  <path d="M1181.69,159.43c3.36-5.12,5.19-11.04,5.19-17.11v-67.41h-25.97v60.87c0,10.24-3.69,14.8-11.96,14.8h-16.35v-75.67h-25.97v191.83h25.97v-93.09h20.27c7.63,0,13.52,5.31,13.52,14.54v78.55h25.97v-85.09c0-8.16-4.01-16.24-10.67-22.23Z" fill="#312320"/>
  <path d="M88.84,74.91h-55.13v191.83h55.13c17.31,0,31.39-14.06,31.39-31.33V106.24c0-17.28-14.08-31.33-31.39-31.33ZM82.3,243.68h-22.62V97.97h22.62c7.93,0,11.96,5.85,11.96,14.8v116.1c0,9.16-3.48,14.81-11.96,14.81Z" fill="#d14827"/>
  <path d="M213.69,159.43c3.36-5.12,5.19-11.04,5.19-17.11v-36.07c0-17.22-13.61-30.98-31.13-31.33h-49.13s-.03,6.86,0,25.37c.08,43.45,0,166.46,0,166.46h56.08c4.36,0,9.82-2.21,9.82-2.21,11.79-4.77,19.83-16.17,19.83-29.12v-53.75c0-8.16-4.01-16.24-10.67-22.23ZM164.6,97.97h16.35c7.45,0,11.96,6.12,11.96,14.8v23.01c0,10.24-3.69,14.8-11.96,14.8h-16.35v-52.61ZM198.39,228.88c0,8.88-5.08,14.81-11.96,14.81h-21.83v-70.03h20.27c7.63,0,13.52,5.31,13.52,14.54v40.68Z" fill="#312320"/>
  <path d="M289.28,124.27h-28.97c-12.84,0-23.29,10.55-23.29,23.51v95.7c0,12.82,10.45,23.25,23.29,23.25h52.53s0-23.02-17.34-23.06c-6.66-.01-18.9,0-26.19,0-3.43-.3-6.17-2.96-6.58-6.35v-30.53h50.11v-59.02c0-12.97-10.57-23.51-23.56-23.51ZM262.73,183.75v-30.12c.39-3.24,2.92-5.81,6.13-6.3h11.81c3.5.52,6.19,3.53,6.19,7.17v29.24h-24.14Z" fill="#312320"/>
  <path d="M842.21,124.27h-28.97c-12.84,0-23.29,10.55-23.29,23.51v95.7c0,12.82,10.45,23.25,23.29,23.25h52.53s0-23.02-17.34-23.06c-6.66-.01-18.9,0-26.19,0-3.43-.3-6.17-2.96-6.58-6.35v-30.53h50.11v-59.02c0-12.97-10.57-23.51-23.56-23.51ZM815.66,183.75v-30.12c.39-3.24,2.92-5.81,6.13-6.3h11.81c3.5.52,6.19,3.53,6.19,7.17v29.24h-24.14Z" fill="#312320"/>
  <path d="M377.41,124.27h-30.37c-17.76,0-18,23.06-18,23.06h39.81c3.24.48,5.77,3.09,6.14,6.36v16.52h-26.55c-12.84,0-23.29,10.43-23.29,23.25v50.02c0,12.82,10.45,23.25,23.29,23.25h52.53v-118.96c0-12.97-10.57-23.51-23.55-23.51ZM375,243.69h-17.39c-3.71-.25-6.64-3.28-6.75-7.03v-36.28c0-3.52,2.52-6.45,5.85-7.1h18.29v50.41Z" fill="#312320"/>
  <path d="M1014.64,124.53h-26.55v-23.38c0-22.56-25.97-22.56-25.97-22.56v188.14h25.97v-119.15h18.29c3.34.66,5.85,3.58,5.86,7.1v112.05s25.7,0,25.7,0v-118.96c0-12.82-10.45-23.25-23.29-23.25Z" fill="#312320"/>
  <polygon points="444.79 209.89 428.69 124.27 403.77 124.27 430.28 266.74 458.7 266.74 485.2 124.27 461.07 124.27 444.79 209.89" fill="#312320"/>
  <path d="M624.18,124.27c-1.05,0-2.8-.02-4.85-.04-7.47-.08-13.89-.14-16.96.07-13.11,1.15-22.62,11.03-22.62,23.48v118.96h25.71s.32-78.39,0-111.06c0-.57-.01-1.1-.01-1.6.12-3.91,3.32-7.04,7.27-7.04h-.25c5.36-.16,7.71-.32,10.36-.34,13.91-.1,13.91-22.43,13.91-22.43h-12.55Z" fill="#312320"/>
  <path d="M543.22,124.27h-28.97c-12.84,0-23.29,10.55-23.29,23.51v95.7c0,12.82,10.45,23.25,23.29,23.25h52.53s0-23.02-17.34-23.06c-6.66-.01-18.9,0-26.19,0-3.43-.3-6.17-2.96-6.58-6.35v-30.53h50.11v-59.02c0-12.97-10.57-23.51-23.56-23.51ZM516.67,183.75v-30.12c.39-3.24,2.92-5.81,6.13-6.3h11.81c3.5.52,6.19,3.53,6.19,7.17v29.24h-24.14Z" fill="#312320"/>
  <path d="M904.17,237.33v-83.64c.37-3.27,2.91-5.87,6.14-6.36h39.81s-.24-23.06-18-23.06h-30.37c-12.99,0-23.55,10.55-23.55,23.51v95.44c0,12.97,10.57,23.51,23.55,23.51h30.37c17.76,0,18-23.06,18-23.06h-39.81c-3.24-.48-5.77-3.09-6.14-6.36Z" fill="#312320"/>
  <path d="M698.96,75.03v22.43s37.75.17,43.11.34h-.25c3.4,0,6.24,2.34,7.04,5.49v163.72h25.71s0-.1,0-.25h.21V103.53c.8-3.15,3.63-5.49,7.04-5.49h-.25c5.36-.16,43.11-.34,43.11-.34v-22.43l-125.71-.25Z" fill="#312320"/>
  <path d="M1245.4,150.4c-5.39-.06-10.22-.1-13.65-.05v-5.86h.05v-36.47c.37-3.27,2.91-5.87,6.14-6.36h39.81s-.24-23.06-18-23.06h-30.37c-12.99,0-23.55,10.55-23.55,23.51v164.88h25.71s0-.1,0-.25h.21v-88.08c.8-3.14,3.64-5.46,7.04-5.46h-.25c5.36-.16,7.71-.32,10.36-.34,13.91-.1,13.91-22.43,13.91-22.43h-12.55c-1.05,0-2.8-.02-4.85-.04Z" fill="#312320"/>
  <path d="M1323.19,243.93c-3.24-.48-5.77-3.09-6.14-6.36v-36.47h-.05v-28.36c3.43.06,8.27.01,13.66-.05,2.06-.02,3.8-.04,4.85-.04h12.55s0-22.34-13.91-22.43c-2.65-.02-5-.17-10.36-.34h.25c-3.39,0-6.23-2.32-7.04-5.46v-35.27h0v-30.31h-.21c0-.15,0-.25,0-.25h-25.71v65.83c-.8,3.14-3.15,5.71-6.54,5.71,0,0-1.35.07-4,.09-13.91.1-13.91,22.43-13.91,22.43h12.55c1.05,0,2.8.02,4.85.04,5.39.06,3.62.1,7.05.05v70.74c0,12.97,10.57,23.51,23.55,23.51h30.37c17.76,0,18-23.06,18-23.06h-39.81Z" fill="#312320"/>
</svg>