<svg preserveAspectRatio="none" width="100%" height="100%" overflow="visible" style="display: block;" viewBox="0 0 1281 1281" fill="none" xmlns="http://www.w3.org/2000/svg">
<g id="Group">
<path id="Vector" d="M640.5 1281C994.238 1281 1281 994.238 1281 640.5C1281 286.762 994.238 0 640.5 0C286.762 0 0 286.762 0 640.5C0 994.238 286.762 1281 640.5 1281Z" fill="url(#paint0_linear_44_551)"/>
<path id="Vector_2" d="M642.191 1275.96C294.314 1275.96 12.2989 992.745 12.2989 643.385C12.2989 294.024 294.314 10.8067 642.191 10.8067C990.068 10.8067 1272.08 294.024 1272.08 643.385C1272.08 992.745 990.068 1275.96 642.191 1275.96Z" fill="url(#paint1_linear_44_551)"/>
<path id="Vector_3" d="M643.882 1270.93C985.904 1270.93 1263.17 991.258 1263.17 646.27C1263.17 301.282 985.904 21.6135 643.882 21.6135C301.861 21.6135 24.5977 301.282 24.5977 646.27C24.5977 991.258 301.861 1270.93 643.882 1270.93Z" fill="url(#paint2_linear_44_551)"/>
<path id="Vector_4" d="M645.573 1265.88C981.736 1265.88 1254.25 989.758 1254.25 649.145C1254.25 308.532 981.736 32.4112 645.573 32.4112C309.41 32.4112 36.8966 308.532 36.8966 649.145C36.8966 989.758 309.41 1265.88 645.573 1265.88Z" fill="url(#paint3_linear_44_551)"/>
<path id="Vector_5" d="M647.264 1260.84C316.958 1260.84 49.1865 988.269 49.1865 652.03C49.1865 315.792 316.958 43.2179 647.264 43.2179C977.57 43.2179 1245.34 315.792 1245.34 652.03C1245.34 988.269 977.579 1260.84 647.264 1260.84Z" fill="url(#paint4_linear_44_551)"/>
<path id="Vector_6" d="M648.955 1255.81C324.509 1255.81 61.4853 986.777 61.4853 654.915C61.4853 323.053 324.509 54.0246 648.955 54.0246C973.402 54.0246 1236.43 323.053 1236.43 654.915C1236.43 986.777 973.411 1255.81 648.955 1255.81Z" fill="url(#paint5_linear_44_551)"/>
<path id="Vector_7" d="M650.647 1250.77C969.239 1250.77 1227.51 985.287 1227.51 657.8C1227.51 330.312 969.239 64.8313 650.647 64.8313C332.054 64.8313 73.7842 330.312 73.7842 657.8C73.7842 985.287 332.054 1250.77 650.647 1250.77Z" fill="url(#paint6_linear_44_551)"/>
<path id="Vector_8" d="M652.338 1245.72C339.603 1245.72 86.0831 983.792 86.0831 660.676C86.0831 337.568 339.603 75.629 652.338 75.629C965.073 75.629 1218.59 337.559 1218.59 660.676C1218.59 983.783 965.073 1245.72 652.338 1245.72Z" fill="url(#paint7_linear_44_551)"/>
<path id="Vector_9" d="M654.029 1240.68C347.154 1240.68 98.3819 982.3 98.3819 663.569C98.3819 344.839 347.154 86.4448 654.029 86.4448C960.904 86.4448 1209.68 344.83 1209.68 663.56C1209.68 982.291 960.904 1240.68 654.029 1240.68V1240.68Z" fill="url(#paint8_linear_44_551)"/>
<path id="Vector_10" d="M655.72 1235.64C354.705 1235.64 110.681 980.799 110.681 666.445C110.681 352.091 354.705 97.2515 655.72 97.2515C956.735 97.2515 1200.76 352.091 1200.76 666.445C1200.76 980.808 956.735 1235.64 655.72 1235.64Z" fill="url(#paint9_linear_44_551)"/>
<path id="Vector_11" d="M659.102 1225.56C369.798 1225.56 135.279 977.824 135.279 672.215C135.279 366.606 369.807 118.856 659.102 118.856C948.406 118.856 1182.93 366.597 1182.93 672.206C1182.93 977.815 948.406 1225.56 659.102 1225.56V1225.56Z" fill="url(#paint10_linear_44_551)"/>
<path id="Vector_12" d="M662.484 1215.48C384.9 1215.48 159.876 974.83 159.876 677.975C159.876 381.12 384.9 140.469 662.484 140.469C940.068 140.469 1165.09 381.12 1165.09 677.975C1165.09 974.83 940.068 1215.48 662.484 1215.48Z" fill="url(#paint11_linear_44_551)"/>
<path id="Vector_13" d="M665.866 1205.4C400.003 1205.4 184.474 971.846 184.474 683.736C184.474 395.635 400.003 162.074 665.866 162.074C931.73 162.074 1147.26 395.626 1147.26 683.736C1147.26 971.837 931.73 1205.4 665.866 1205.4Z" fill="url(#paint12_linear_44_551)"/>
<path id="Vector_14" d="M669.249 1195.32C415.096 1195.32 209.072 968.862 209.072 689.506C209.072 410.149 415.096 183.687 669.249 183.687C923.401 183.687 1129.43 410.149 1129.43 689.506C1129.43 968.862 923.392 1195.32 669.249 1195.32Z" fill="url(#paint13_linear_44_551)"/>
<path id="Vector_15" d="M672.631 1185.24C430.198 1185.24 233.66 965.878 233.66 695.275C233.66 424.673 430.189 205.31 672.631 205.31C915.063 205.31 1111.6 424.673 1111.6 695.275C1111.6 965.878 915.072 1185.24 672.631 1185.24Z" fill="url(#paint14_linear_44_551)"/>
<path id="Vector_16" d="M676.013 1175.16C445.292 1175.16 258.258 962.884 258.258 701.036C258.258 439.187 445.292 226.914 676.013 226.914C906.734 226.914 1093.77 439.187 1093.77 701.036C1093.77 962.884 906.734 1175.16 676.013 1175.16Z" fill="url(#paint15_linear_44_551)"/>
<path id="Vector_17" d="M679.395 1165.07C460.394 1165.07 282.856 959.9 282.856 706.796C282.856 453.693 460.394 248.519 679.395 248.519C898.397 248.519 1075.93 453.693 1075.93 706.796C1075.93 959.9 898.397 1165.07 679.395 1165.07Z" fill="url(#paint16_linear_44_551)"/>
<path id="Vector_18" d="M679.555 350.192C849.952 350.192 988.089 509.89 988.089 706.893C988.089 903.897 849.952 1063.59 679.555 1063.59C509.157 1063.59 371.021 903.897 371.021 706.893C371.021 509.89 509.158 350.192 679.555 350.192Z" fill="url(#paint17_linear_44_551)"/>
</g>
<defs>
<linearGradient id="paint0_linear_44_551" x1="0" y1="640.5" x2="1281" y2="640.5" gradientUnits="userSpaceOnUse">
<stop stop-color="#A6958B"/>
<stop offset="0.11" stop-color="#AC9F85"/>
<stop offset="0.26" stop-color="#B3A980"/>
<stop offset="0.42" stop-color="#CB4926"/>
<stop offset="0.81" stop-color="#5D2214"/>
<stop offset="0.95" stop-color="#302220"/>
</linearGradient>
<linearGradient id="paint1_linear_44_551" x1="12.8411" y1="616.52" x2="1272.47" y2="671.296" gradientUnits="userSpaceOnUse">
<stop stop-color="#A6958B"/>
<stop offset="0.09" stop-color="#AB9B85"/>
<stop offset="0.26" stop-color="#B3A67E"/>
<stop offset="0.42" stop-color="#CB4926"/>
<stop offset="0.81" stop-color="#5D2214"/>
<stop offset="0.95" stop-color="#302220"/>
</linearGradient>
<linearGradient id="paint2_linear_44_551" x1="27.139" y1="589.916" x2="1260.21" y2="701.917" gradientUnits="userSpaceOnUse">
<stop stop-color="#A6958B"/>
<stop offset="0.06" stop-color="#AA9986"/>
<stop offset="0.26" stop-color="#B4A37C"/>
<stop offset="0.42" stop-color="#CB4926"/>
<stop offset="0.81" stop-color="#5D2214"/>
<stop offset="0.95" stop-color="#302220"/>
</linearGradient>
<linearGradient id="paint3_linear_44_551" x1="43.3431" y1="560.576" x2="1243.65" y2="732.046" gradientUnits="userSpaceOnUse">
<stop stop-color="#A6958B"/>
<stop offset="0.07" stop-color="#AA9985"/>
<stop offset="0.26" stop-color="#B4A17A"/>
<stop offset="0.42" stop-color="#CB4926"/>
<stop offset="0.81" stop-color="#5D2214"/>
<stop offset="0.95" stop-color="#302220"/>
</linearGradient>
<linearGradient id="paint4_linear_44_551" x1="60.2493" y1="534.735" x2="1234.44" y2="769.576" gradientUnits="userSpaceOnUse">
<stop stop-color="#A6958B"/>
<stop offset="0.09" stop-color="#AC9882"/>
<stop offset="0.26" stop-color="#B59E77"/>
<stop offset="0.42" stop-color="#CB4926"/>
<stop offset="0.81" stop-color="#5D2214"/>
<stop offset="0.95" stop-color="#302220"/>
</linearGradient>
<linearGradient id="paint5_linear_44_551" x1="79.5175" y1="506.006" x2="1219.69" y2="805.974" gradientUnits="userSpaceOnUse">
<stop stop-color="#A6958B"/>
<stop offset="0.1" stop-color="#AC9781"/>
<stop offset="0.26" stop-color="#B59B75"/>
<stop offset="0.42" stop-color="#CB4926"/>
<stop offset="0.81" stop-color="#5D2214"/>
<stop offset="0.95" stop-color="#302220"/>
</linearGradient>
<linearGradient id="paint6_linear_44_551" x1="101.91" y1="474.494" x2="1199.06" y2="840.104" gradientUnits="userSpaceOnUse">
<stop stop-color="#A6958B"/>
<stop offset="0.1" stop-color="#AD9680"/>
<stop offset="0.26" stop-color="#B69873"/>
<stop offset="0.42" stop-color="#CB4926"/>
<stop offset="0.81" stop-color="#5D2214"/>
<stop offset="0.95" stop-color="#302220"/>
</linearGradient>
<linearGradient id="paint7_linear_44_551" x1="124.617" y1="446.245" x2="1182.66" y2="881.905" gradientUnits="userSpaceOnUse">
<stop stop-color="#A6958B"/>
<stop offset="0.1" stop-color="#AD957E"/>
<stop offset="0.26" stop-color="#B69571"/>
<stop offset="0.42" stop-color="#CB4926"/>
<stop offset="0.81" stop-color="#5D2214"/>
<stop offset="0.95" stop-color="#302220"/>
</linearGradient>
<linearGradient id="paint8_linear_44_551" x1="151.086" y1="415.574" x2="1159.26" y2="919.772" gradientUnits="userSpaceOnUse">
<stop stop-color="#A6958B"/>
<stop offset="0.11" stop-color="#AD947D"/>
<stop offset="0.26" stop-color="#B6936F"/>
<stop offset="0.42" stop-color="#CB4926"/>
<stop offset="0.81" stop-color="#5D2214"/>
<stop offset="0.95" stop-color="#302220"/>
</linearGradient>
<linearGradient id="paint9_linear_44_551" x1="182.223" y1="383.25" x2="1129.73" y2="951.669" gradientUnits="userSpaceOnUse">
<stop stop-color="#A6958B"/>
<stop offset="0.11" stop-color="#AE927C"/>
<stop offset="0.26" stop-color="#B7906D"/>
<stop offset="0.42" stop-color="#CB4926"/>
<stop offset="0.81" stop-color="#5D2214"/>
<stop offset="0.95" stop-color="#302220"/>
</linearGradient>
<linearGradient id="paint10_linear_44_551" x1="249.409" y1="325.94" x2="1068.75" y2="1019.32" gradientUnits="userSpaceOnUse">
<stop stop-color="#A6958B"/>
<stop offset="0.11" stop-color="#AE8F7B"/>
<stop offset="0.26" stop-color="#B88A69"/>
<stop offset="0.42" stop-color="#CB4926"/>
<stop offset="0.81" stop-color="#5D2214"/>
<stop offset="0.95" stop-color="#302220"/>
</linearGradient>
<linearGradient id="paint11_linear_44_551" x1="324.25" y1="278.728" x2="1000.7" y2="1078.07" gradientUnits="userSpaceOnUse">
<stop stop-color="#A6958B"/>
<stop offset="0.11" stop-color="#AE8D79"/>
<stop offset="0.26" stop-color="#B88564"/>
<stop offset="0.42" stop-color="#CB4926"/>
<stop offset="0.81" stop-color="#5D2214"/>
<stop offset="0.95" stop-color="#302220"/>
</linearGradient>
<linearGradient id="paint12_linear_44_551" x1="402.018" y1="245.548" x2="929.009" y2="1124" gradientUnits="userSpaceOnUse">
<stop stop-color="#A6958B"/>
<stop offset="0.09" stop-color="#AD8C7A"/>
<stop offset="0.26" stop-color="#B97F60"/>
<stop offset="0.42" stop-color="#CB4926"/>
<stop offset="0.81" stop-color="#5D2214"/>
<stop offset="0.95" stop-color="#302220"/>
</linearGradient>
<linearGradient id="paint13_linear_44_551" x1="476.447" y1="228.651" x2="858.856" y2="1157.36" gradientUnits="userSpaceOnUse">
<stop stop-color="#A6958B"/>
<stop offset="0.07" stop-color="#AB8D7E"/>
<stop offset="0.26" stop-color="#BA7A5C"/>
<stop offset="0.42" stop-color="#CB4926"/>
<stop offset="0.81" stop-color="#5D2214"/>
<stop offset="0.95" stop-color="#302220"/>
</linearGradient>
<linearGradient id="paint14_linear_44_551" x1="547.778" y1="224.685" x2="795.982" y2="1168.1" gradientUnits="userSpaceOnUse">
<stop stop-color="#A6958B"/>
<stop offset="0.01" stop-color="#A79388"/>
<stop offset="0.26" stop-color="#BB7458"/>
<stop offset="0.42" stop-color="#CB4926"/>
<stop offset="0.81" stop-color="#5D2214"/>
<stop offset="0.95" stop-color="#302220"/>
</linearGradient>
<linearGradient id="paint15_linear_44_551" x1="611.735" y1="231.735" x2="744.961" y2="1164.33" gradientUnits="userSpaceOnUse">
<stop stop-color="#A6958B"/>
<stop offset="0.26" stop-color="#BC6E53"/>
<stop offset="0.42" stop-color="#CB4926"/>
<stop offset="0.81" stop-color="#5D2214"/>
<stop offset="0.95" stop-color="#302220"/>
</linearGradient>
<linearGradient id="paint16_linear_44_551" x1="658.968" y1="249.248" x2="698.81" y2="1165.46" gradientUnits="userSpaceOnUse">
<stop offset="0.227359" stop-color="#A6958B"/>
<stop offset="0.505327" stop-color="#BD694F"/>
<stop offset="0.741612" stop-color="#CB4926"/>
<stop offset="0.91414" stop-color="#5D2214"/>
<stop offset="1" stop-color="#302220"/>
</linearGradient>
<linearGradient id="paint17_linear_44_551" x1="695.449" y1="1063.03" x2="664.426" y2="349.894" gradientUnits="userSpaceOnUse">
<stop stop-color="#B3A980"/>
<stop offset="0.274038" stop-color="#BD694F"/>
<stop offset="0.615385" stop-color="#5D2214"/>
<stop offset="0.879808" stop-color="#302220"/>
</linearGradient>
</defs>
</svg>
