<svg preserveAspectRatio="none" width="100%" height="100%" overflow="visible" style="display: block;" viewBox="0 0 142.183 34" fill="none" xmlns="http://www.w3.org/2000/svg">
<g id="DBeaver Logo" clip-path="url(#clip0_44_531)">
<path id="Vector" d="M12.8057 9.22485C12.8057 9.22485 12.8057 9.22158 12.8057 9.22049C12.8057 9.22158 12.8057 9.22376 12.8057 9.22485Z" fill="var(--fill-0, white)"/>
<path id="Vector_2" d="M18.2338 5.12601C18.3199 5.07476 18.417 5.02024 18.5249 4.96244C18.49 4.97989 18.4562 4.99625 18.4203 5.01478C18.3625 5.04532 18.2992 5.08348 18.2338 5.12601Z" fill="var(--fill-0, white)"/>
<path id="Vector_3" d="M19.9087 4.46195C19.8541 4.47394 19.7985 4.48703 19.7407 4.5012C19.7953 4.48921 19.8498 4.47612 19.9087 4.46195Z" fill="var(--fill-0, white)"/>
<path id="Vector_4" d="M10.4701 20.8769C10.8844 15.9396 13.3379 11.8484 13.3379 11.8484C12.9104 11.7295 12.6018 11.47 12.4165 11.0753C11.9716 11.9203 9.19432 17.3942 9.35134 22.1309C9.52253 27.2798 12.7054 29.8521 12.7054 29.8521C12.158 29.3069 10.0547 25.8143 10.469 20.8759L10.4701 20.8769Z" fill="var(--fill-0, white)"/>
<path id="Vector_5" d="M21.1245 5.04968C20.7592 5.86966 22.9956 7.29265 23.8963 7.03095C24.3259 6.90664 24.942 5.99397 25.2168 5.19579C25.412 4.62878 25.4349 4.11847 25.0936 3.99089C24.8842 3.91238 24.5494 3.88403 24.1602 3.90039C23.5266 3.92656 22.7481 4.07158 22.132 4.31147C21.6446 4.5012 21.2575 4.75091 21.1245 5.04968Z" fill="var(--fill-0, white)"/>
<path id="Vector_6" d="M18.4213 5.01478C18.4562 4.99625 18.4911 4.97989 18.526 4.96244C18.9796 4.73455 19.3929 4.58844 19.7418 4.50011C19.7996 4.48594 19.8552 4.47285 19.9098 4.46086C19.9436 4.45322 19.9774 4.44668 20.009 4.44014C20.0133 4.44014 20.0188 4.43796 20.0242 4.43687C19.7691 4.40416 19.2413 4.33328 19.0723 4.14246C18.695 3.71611 18.091 3.60162 17.6515 3.69866C17.1859 3.80116 16.9384 4.342 17.2579 5.01369C17.4018 5.31574 17.3647 5.68102 17.2186 5.95253C17.5926 5.60469 17.9448 5.31247 18.2349 5.12492C18.3003 5.08239 18.3636 5.04423 18.4213 5.01369V5.01478Z" fill="var(--fill-0, white)"/>
<path id="Vector_7" d="M26.0248 9.31971C26.1174 8.60877 26.0487 8.07665 26.0291 7.94907C26.0259 7.92944 26.0248 7.91854 26.0248 7.91854C26.0248 7.91854 26.0215 7.9578 26.0149 8.02649L26.0248 7.84984C26.0248 7.84984 25.5733 9.66101 24.6836 10.3098C24.4764 10.4603 24.3444 10.5617 24.2594 10.6293C24.3488 10.2913 24.6846 8.86829 24.2049 8.08973C24.2049 8.08973 24.0053 11.3631 22.2574 11.5376C20.5084 11.711 18.0452 9.92489 17.3397 9.20849C17.3713 9.35788 17.4062 9.49745 17.4433 9.63266C17.4204 9.60758 17.4084 9.59341 17.4084 9.59341C17.4084 9.59341 17.4378 9.66101 17.4825 9.7766C17.5447 9.99032 17.6144 10.1855 17.6875 10.3654C17.9328 11.1505 18.1935 12.3565 17.8042 13.1122C17.1881 14.3083 15.8534 16.1533 15.9908 18.7834C16.1282 21.4145 16.5382 22.132 17.0518 23.4296C17.5654 24.7283 17.7017 25.9234 17.5992 26.1283C17.4967 26.3333 17.633 27.3921 15.2036 25.5821C12.7741 23.7709 12.1232 21.8921 12.1232 21.8921C12.1232 21.8921 11.5758 23.1221 11.6783 25.1721C11.7808 27.222 12.7054 29.8521 12.7054 29.8521C12.7054 29.8521 9.52253 27.2798 9.35134 22.1309C9.19432 17.3931 11.9716 11.9192 12.4165 11.0753C12.6008 11.4689 12.9104 11.7284 13.3379 11.8484C13.3379 11.8484 12.3227 11.2923 12.8057 9.22485C12.8057 9.22376 12.8057 9.22158 12.8057 9.22049C12.8559 9.00677 12.9213 8.77778 13.0064 8.53135C13.9136 5.89256 15.7291 3.54492 17.5708 2.50903C19.394 1.48295 20.9336 1.51894 22.6249 2.22661C22.6412 2.23315 22.6576 2.2397 22.6739 2.24733C22.6739 2.24733 20.4375 0.150476 17.4705 1.94093C15.7651 2.97027 14.63 4.11193 13.8493 5.28303C13.1939 5.3997 12.3979 5.29393 12.0741 5.29393C11.6663 5.29393 11.036 5.5698 11.3206 6.5708C11.5998 7.55107 12.3685 8.54116 12.3063 9.09836C12.2366 9.49091 12.206 9.84311 12.2169 10.155C11.8244 10.7765 9.98923 13.7609 9.42985 16.1326C9.42985 16.1326 10.4788 5.66249 7.26211 3.86986C4.04541 2.07614 1.45351 3.51111 0.58882 5.86857C-1.25942 10.9073 1.47859 18.7823 5.34627 25.1372C9.21394 31.4921 12.8777 32.6414 15.4762 32.7558C19.8225 32.9478 18.5566 32.0046 20.13 31.9021C21.7046 31.7996 21.4647 32.7558 24.0653 32.3807C25.9648 32.106 26.2897 30.8433 25.5711 30.2621C24.8526 29.6809 25.0925 28.3146 25.7761 25.3771C26.4609 22.4384 25.4796 17.2666 24.7948 15.9341C24.11 14.6017 24.1787 13.9234 24.9093 12.6084C25.6246 11.3217 25.8677 10.5017 26.0226 9.31862L26.0248 9.31971ZM24.6607 10.9008C24.6607 10.9008 24.2049 12.4492 23.8854 13.1558C23.6041 13.7784 23.5146 13.7282 23.3107 13.8013C23.3871 13.6083 23.4427 13.3553 23.543 12.9279C23.664 12.4143 23.543 12.2791 23.543 12.2791C23.3849 13.0478 23.1385 13.5974 22.9302 13.9583C22.6587 14.0488 22.3261 14.1077 22.0829 14.0106C21.7405 13.8743 21.6828 12.2682 21.6828 12.1777C23.1723 12.2802 23.965 11.6761 24.6618 10.9019L24.6607 10.9008Z" fill="var(--fill-0, white)"/>
<path id="Vector_8" d="M38.692 8.16824H32.6806V29.0855H38.692C40.5795 29.0855 42.1148 27.5524 42.1148 25.6693V11.5845C42.1148 9.70027 40.5795 8.16824 38.692 8.16824ZM37.9789 26.5711H35.5124V10.6827H37.9789C38.8436 10.6827 39.283 11.3206 39.283 12.2965V24.9562C39.283 25.955 38.9036 26.5711 37.9789 26.5711Z" fill="var(--fill-0, white)"/>
<path id="Vector_9" d="M52.3058 17.3844C52.6721 16.8261 52.8717 16.1806 52.8717 15.5187V11.5856C52.8717 9.7079 51.3876 8.2075 49.4772 8.16933H44.1201C44.1201 8.16933 44.1168 8.91735 44.1201 10.9357C44.1288 15.6735 44.1201 29.0866 44.1201 29.0866H50.2351C50.7105 29.0866 51.3059 28.8456 51.3059 28.8456C52.5915 28.3255 53.4681 27.0825 53.4681 25.6704V19.8094C53.4681 18.9197 53.0309 18.0386 52.3047 17.3855L52.3058 17.3844ZM46.953 10.6827H48.7358C49.5481 10.6827 50.0399 11.3501 50.0399 12.2965V14.8056C50.0399 15.9221 49.6375 16.4194 48.7358 16.4194H46.953V10.6827ZM50.6374 24.9572C50.6374 25.9255 50.0835 26.5721 49.3333 26.5721H46.953V18.936H49.1632C49.9952 18.936 50.6374 19.515 50.6374 20.5215V24.9572Z" fill="var(--fill-0, white)"/>
<path id="Vector_10" d="M60.5482 13.5505H57.3892C55.9892 13.5505 54.8497 14.7009 54.8497 16.114V26.5492C54.8497 27.9471 55.9892 29.0844 57.3892 29.0844H63.1172C63.1172 29.0844 63.1172 26.5743 61.2264 26.57C60.5002 26.5689 59.1655 26.57 58.3706 26.57C57.9966 26.5373 57.6978 26.2472 57.6531 25.8776V22.5485H63.1172V16.113C63.1172 14.6987 61.9646 13.5494 60.5482 13.5494V13.5505ZM57.6531 20.0362V16.7519C57.6957 16.3986 57.9715 16.1184 58.3215 16.065H59.6093C59.991 16.1217 60.2843 16.4499 60.2843 16.8468V20.0352H57.652L57.6531 20.0362Z" fill="var(--fill-0, white)"/>
<path id="Vector_11" d="M120.84 13.5505H117.681C116.281 13.5505 115.142 14.7009 115.142 16.114V26.5492C115.142 27.9471 116.281 29.0844 117.681 29.0844H123.409C123.409 29.0844 123.409 26.5743 121.518 26.57C120.792 26.5689 119.457 26.57 118.663 26.57C118.289 26.5373 117.99 26.2472 117.945 25.8776V22.5485H123.409V16.113C123.409 14.6987 122.257 13.5494 120.84 13.5494V13.5505ZM117.945 20.0362V16.7519C117.988 16.3986 118.263 16.1184 118.613 16.065H119.901C120.283 16.1217 120.576 16.4499 120.576 16.8468V20.0352H117.944L117.945 20.0362Z" fill="var(--fill-0, white)"/>
<path id="Vector_12" d="M70.1579 13.5505H66.8464C64.9098 13.5505 64.8836 16.065 64.8836 16.065H69.2245C69.5778 16.1173 69.8537 16.4019 69.894 16.7585V18.5598H66.999C65.5989 18.5598 64.4595 19.6971 64.4595 21.095V26.5492C64.4595 27.9471 65.5989 29.0844 66.999 29.0844H72.7269V16.113C72.7269 14.6987 71.5744 13.5494 70.159 13.5494L70.1579 13.5505ZM69.894 26.5721H67.9978C67.5933 26.5449 67.2738 26.2145 67.2618 25.8056V21.8496C67.2618 21.4658 67.5366 21.1463 67.8997 21.0754H69.894V26.5721Z" fill="var(--fill-0, white)"/>
<path id="Vector_13" d="M139.642 13.5788H136.747V11.0295C136.747 8.56951 133.915 8.56951 133.915 8.56951V29.0844H136.747V16.0922H138.741C139.105 16.1642 139.379 16.4826 139.38 16.8664V29.0844H142.183V16.113C142.183 14.7151 141.043 13.5778 139.643 13.5778L139.642 13.5788Z" fill="var(--fill-0, white)"/>
<path id="Vector_14" d="M77.5051 22.8866L75.7495 13.5505H73.0322L75.9218 29.0855H79.0219L81.9114 13.5505H79.2803L77.5051 22.8866Z" fill="var(--fill-0, white)"/>
<path id="Vector_15" d="M97.0659 13.5505C96.9514 13.5505 96.7606 13.5483 96.5371 13.5461C95.7225 13.5374 95.0225 13.5309 94.6877 13.5538C93.2582 13.6792 92.2212 14.7565 92.2212 16.114V29.0855H95.0247C95.0247 29.0855 95.0596 20.5378 95.0247 16.9755C95.0247 16.9133 95.0236 16.8555 95.0236 16.801C95.0367 16.3747 95.3856 16.0334 95.8163 16.0334H95.789C96.3735 16.0159 96.6297 15.9985 96.9187 15.9963C98.4355 15.9854 98.4355 13.5505 98.4355 13.5505H97.067H97.0659Z" fill="var(--fill-0, white)"/>
<path id="Vector_16" d="M88.238 13.5505H85.0791C83.679 13.5505 82.5395 14.7009 82.5395 16.114V26.5492C82.5395 27.9471 83.679 29.0844 85.0791 29.0844H90.807C90.807 29.0844 90.807 26.5743 88.9162 26.57C88.19 26.5689 86.8553 26.57 86.0604 26.57C85.6864 26.5373 85.3876 26.2472 85.3429 25.8776V22.5485H90.807V16.113C90.807 14.6987 89.6544 13.5494 88.238 13.5494V13.5505ZM85.3429 20.0362V16.7519C85.3855 16.3986 85.6613 16.1184 86.0114 16.065H87.2991C87.6808 16.1217 87.9741 16.4499 87.9741 16.8468V20.0352H85.3418L85.3429 20.0362Z" fill="var(--fill-0, white)"/>
<path id="Vector_17" d="M127.596 25.8786V16.7585C127.637 16.4019 127.914 16.1184 128.266 16.065H132.607C132.607 16.065 132.58 13.5505 130.644 13.5505H127.332C125.916 13.5505 124.764 14.7009 124.764 16.114V26.5209C124.764 27.9352 125.917 29.0844 127.332 29.0844H130.644C132.58 29.0844 132.607 26.57 132.607 26.57H128.266C127.912 26.5176 127.637 26.233 127.596 25.8765V25.8786Z" fill="var(--fill-0, white)"/>
<path id="Vector_18" d="M105.22 8.18133V10.6271C105.22 10.6271 109.336 10.6457 109.921 10.6642H109.893C110.264 10.6642 110.574 10.9193 110.661 11.2628V29.115H113.465C113.465 29.115 113.465 29.1041 113.465 29.0877H113.487V11.289C113.575 10.9455 113.883 10.6904 114.255 10.6904H114.228C114.812 10.6729 118.929 10.6533 118.929 10.6533V8.2075L105.221 8.18024L105.22 8.18133Z" fill="var(--fill-0, white)"/>
</g>
<defs>
<clipPath id="clip0_44_531">
<rect width="142.183" height="34" fill="white"/>
</clipPath>
</defs>
</svg>
