<svg preserveAspectRatio="none" width="100%" height="100%" overflow="visible" style="display: block;" viewBox="0 0 128 20" fill="none" xmlns="http://www.w3.org/2000/svg">
<g id="Layer_1" clip-path="url(#clip0_90_7881)">
<path id="Vector" d="M0 0.28169H4.03336C5.35914 0.28169 6.43595 0.719875 7.27 1.59311C8.10095 2.46635 8.51487 3.6338 8.51487 5.10172V14.9327C8.51487 16.4163 8.09784 17.5962 7.27 18.4695C6.43906 19.3427 5.35914 19.7778 4.03336 19.7778H0V0.28169ZM3.97734 17.662C4.68691 17.662 5.24088 17.4241 5.64234 16.9452C6.04381 16.4664 6.24299 15.7684 6.24299 14.8451V5.1831C6.24299 4.28169 6.0407 3.59311 5.64234 3.11111C5.24088 2.63224 4.6838 2.39437 3.97734 2.39437H2.26876V17.662H3.97734Z" fill="var(--fill-0, white)"/>
<path id="Vector_2" d="M17.5464 10.7606C17.9105 11.3427 18.091 12.0469 18.091 12.8732V15.493C18.091 16.7324 17.702 17.7559 16.9301 18.5634C16.1552 19.3709 15.1407 19.7746 13.8896 19.7746H9.77218V0.28169H13.4694C14.7205 0.28169 15.732 0.682316 16.51 1.48044C17.2849 2.27856 17.6708 3.29577 17.6708 4.53521V6.4507C17.6708 7.91549 17.1013 8.92019 15.9623 9.46479C16.6532 9.74648 17.1822 10.1784 17.5432 10.7606H17.5464ZM12.0441 2.39437V8.59155H13.3885C14.0047 8.59155 14.4964 8.40063 14.8606 8.01565C15.2247 7.63067 15.4052 7.08294 15.4052 6.36933V4.62285C15.4052 3.90923 15.2247 3.3615 14.8606 2.97653C14.4964 2.59155 14.0047 2.3975 13.3885 2.3975H12.0441V2.39437ZM15.8253 12.9577C15.8253 12.2441 15.6448 11.6901 15.2807 11.2958C14.9166 10.9014 14.4249 10.7042 13.8086 10.7042H12.0441V17.662H13.8086C14.4249 17.662 14.9166 17.4648 15.2807 17.0704C15.6448 16.6761 15.8253 16.1221 15.8253 15.4084V12.9577Z" fill="var(--fill-0, white)"/>
<path id="Vector_3" d="M19.0744 8.87324C19.0744 7.59624 19.4479 6.55086 20.1948 5.73083C20.9417 4.91393 21.9127 4.50391 23.1078 4.50391C24.3029 4.50391 25.2676 4.91393 26.0083 5.73083C26.7459 6.54773 27.1131 7.59624 27.1131 8.87324V12.9859H21.3432V15.5211C21.3432 16.2911 21.5019 16.8764 21.8193 17.2801C22.1368 17.6839 22.5569 17.8842 23.0798 17.8842C23.6026 17.8842 23.9947 17.6839 24.3122 17.2801C24.6296 16.8764 24.7883 16.2911 24.7883 15.5211V14.9014H27.0571V15.6056C27.0571 16.8826 26.6868 17.9343 25.9492 18.7606C25.2116 19.5869 24.2562 20 23.0767 20C21.8972 20 20.9386 19.5931 20.1917 18.7731C19.4448 17.9562 19.0713 16.9014 19.0713 15.6056V8.87324H19.0744ZM24.8444 10.8732V8.95775C24.8444 8.20657 24.6856 7.63067 24.3682 7.22379C24.0508 6.82003 23.6306 6.61659 23.1078 6.61659C22.5849 6.61659 22.1368 6.82003 21.8193 7.22379C21.5019 7.62754 21.3432 8.20657 21.3432 8.95775V10.8732H24.8444Z" fill="var(--fill-0, white)"/>
<path id="Vector_4" d="M35.2763 5.71831C35.9952 6.52582 36.3531 7.57747 36.3531 8.87324V19.7746H34.8126L34.4205 18.7042H34.3365C33.6082 19.5681 32.7306 20 31.7036 20C30.6766 20 29.911 19.6307 29.2948 18.8889C28.6785 18.1471 28.3704 17.1674 28.3704 15.9437V15.3239C28.3704 14.0657 28.7501 13.0297 29.5064 12.2097C30.2626 11.3928 31.2461 10.9828 32.4629 10.9828H34.0875V8.95462C34.0875 8.20344 33.9474 7.62754 33.6673 7.22066C33.3872 6.8169 33.0044 6.61346 32.519 6.61346C32.0335 6.61346 31.6444 6.8169 31.355 7.22066C31.0656 7.62441 30.9193 8.20344 30.9193 8.95462V9.46166H28.6505V8.87011C28.6505 7.57434 29.0084 6.52269 29.7305 5.71518C30.4494 4.90767 31.3768 4.50391 32.519 4.50391C33.6611 4.50391 34.5574 4.90767 35.2763 5.71518V5.71831ZM33.4993 17.2676C33.8354 16.8545 34.0315 16.3286 34.0875 15.6901V13.0986H32.4629C31.9027 13.0986 31.4577 13.302 31.134 13.7058C30.8073 14.1095 30.6423 14.6698 30.6423 15.3803V15.662C30.6423 16.3756 30.7855 16.9264 31.078 17.3083C31.3675 17.6933 31.7534 17.8842 32.2389 17.8842C32.7244 17.8842 33.1632 17.6776 33.4993 17.2645V17.2676Z" fill="var(--fill-0, white)"/>
<path id="Vector_5" d="M45.7114 4.73239L42.2102 19.7746H40.0255L36.5243 4.73239H38.9611L41.1178 16.1408L43.3026 4.73239H45.7114Z" fill="var(--fill-0, white)"/>
<path id="Vector_6" d="M45.7394 8.87324C45.7394 7.59624 46.1129 6.55086 46.8598 5.73083C47.6067 4.91393 48.5777 4.50391 49.7728 4.50391C50.9678 4.50391 51.9326 4.91393 52.6733 5.73083C53.4109 6.54773 53.7781 7.59624 53.7781 8.87324V12.9859H48.0082V15.5211C48.0082 16.2911 48.1669 16.8764 48.4843 17.2801C48.8018 17.6839 49.2219 17.8842 49.7448 17.8842C50.2676 17.8842 50.6597 17.6839 50.9772 17.2801C51.2946 16.8764 51.4533 16.2911 51.4533 15.5211V14.9014H53.7221V15.6056C53.7221 16.8826 53.3517 17.9343 52.6173 18.7606C51.8797 19.5869 50.9211 20 49.7448 20C48.5684 20 47.6067 19.5931 46.8598 18.7731C46.1129 17.9562 45.7394 16.9014 45.7394 15.6056V8.87324ZM51.5093 10.8732V8.95775C51.5093 8.20657 51.3506 7.63067 51.0332 7.22379C50.7157 6.82003 50.2956 6.61659 49.7728 6.61659C49.2499 6.61659 48.8018 6.82003 48.4843 7.22379C48.1669 7.62754 48.0082 8.20657 48.0082 8.95775V10.8732H51.5093Z" fill="var(--fill-0, white)"/>
<path id="Vector_7" d="M55.2066 4.73239H56.7471L57.1392 5.71831H57.2513C57.8488 5.06103 58.7078 4.73239 59.8281 4.73239H60.5004V6.84507H59.296C58.7731 6.84507 58.353 7.00469 58.0355 7.32394C57.7181 7.64319 57.5314 8.10329 57.4754 8.70423V19.7746H55.2066V4.73239Z" fill="var(--fill-0, white)"/>
<path id="Vector_8" d="M64.6458 0.28169H73.3567V2.39437H70.1356V19.7746H67.8669V2.39437H64.6458V0.28169Z" fill="var(--fill-0, white)"/>
<path id="Vector_9" d="M71.9002 8.87324C71.9002 7.59624 72.2737 6.55086 73.0206 5.73083C73.7675 4.91393 74.7385 4.50391 75.9336 4.50391C77.1286 4.50391 78.0934 4.91393 78.8341 5.73083C79.5717 6.54773 79.9389 7.59624 79.9389 8.87324V12.9859H74.169V15.5211C74.169 16.2911 74.3277 16.8764 74.6451 17.2801C74.9626 17.6839 75.3827 17.8842 75.9056 17.8842C76.4284 17.8842 76.8205 17.6839 77.138 17.2801C77.4554 16.8764 77.6141 16.2911 77.6141 15.5211V14.9014H79.8829V15.6056C79.8829 16.8826 79.5126 17.9343 78.775 18.7606C78.0374 19.5869 77.082 20 75.9056 20C74.7292 20 73.7675 19.5931 73.0206 18.7731C72.2737 17.9562 71.9002 16.9014 71.9002 15.6056V8.87324ZM77.6702 10.8732V8.95775C77.6702 8.20657 77.5114 7.63067 77.194 7.22379C76.8766 6.82003 76.4564 6.61659 75.9336 6.61659C75.4107 6.61659 74.9626 6.82003 74.6451 7.22379C74.3277 7.62754 74.169 8.20657 74.169 8.95775V10.8732H77.6702Z" fill="var(--fill-0, white)"/>
<path id="Vector_10" d="M86.8853 8.95775C86.8853 8.20657 86.7359 7.63067 86.4371 7.22379C86.1383 6.82003 85.7369 6.61659 85.2327 6.61659C84.7285 6.61659 84.2897 6.82003 83.9723 7.22379C83.6548 7.62754 83.4961 8.20657 83.4961 8.95775V15.5211C83.4961 16.2911 83.6548 16.8764 83.9723 17.2801C84.2897 17.6839 84.7099 17.8842 85.2327 17.8842C85.7555 17.8842 86.1477 17.6839 86.4651 17.2801C86.7826 16.8764 86.9413 16.2911 86.9413 15.5211V14.9014H89.21V15.6056C89.21 16.8826 88.8397 17.9343 88.1052 18.7606C87.3676 19.5869 86.4091 20 85.2327 20C84.0563 20 83.0947 19.5931 82.3477 18.7731C81.6008 17.9562 81.2274 16.9014 81.2274 15.6056V8.87324C81.2274 7.59624 81.6008 6.55086 82.3477 5.73083C83.0947 4.91393 84.0563 4.50391 85.2327 4.50391C86.4091 4.50391 87.3583 4.91393 88.0772 5.73083C88.7961 6.54773 89.154 7.59624 89.154 8.87324V9.46479H86.8853V8.95775Z" fill="var(--fill-0, white)"/>
<path id="Vector_11" d="M97.4728 5.6338C98.089 6.38498 98.3971 7.38028 98.3971 8.61972V19.7746H96.1284V8.90141C96.1284 8.16901 95.979 7.60563 95.6802 7.21127C95.3815 6.8169 94.98 6.61972 94.4758 6.61972C93.9717 6.61972 93.5235 6.81377 93.1874 7.19875C92.8513 7.58372 92.6552 8.08451 92.5992 8.70422V19.7746H90.3304V0H92.5992V5.46479C93.2901 4.82629 94.1024 4.50704 95.036 4.50704C96.0443 4.50704 96.8566 4.88263 97.4728 5.6338Z" fill="var(--fill-0, white)"/>
<path id="Vector_12" d="M108.957 10.4225H107.724V19.7746H105.456V0.28169H107.724V8.30986H108.985L111.281 0.28169H113.718L110.833 9.35211L114.278 19.7746H111.758L108.957 10.4225Z" fill="var(--fill-0, white)"/>
<path id="Vector_13" d="M114.054 4.73239H115.707V3.29577C115.707 2.24413 116.006 1.43349 116.603 0.86072C117.201 0.28795 118.05 0 119.152 0H120.469V2.11268H119.404C118.452 2.11268 117.976 2.61972 117.976 3.6338V4.73239H120.385V6.84507H117.976V19.7746H115.707V6.84507H114.054V4.73239Z" fill="var(--fill-0, white)"/>
<path id="Vector_14" d="M123.35 4.73239V1.85915L125.619 1.26761V4.73239H127.972V6.84507H125.619V15.9718C125.619 16.5352 125.75 16.9577 126.011 17.2394C126.273 17.5211 126.656 17.662 127.16 17.662H128V19.7746H126.936C125.853 19.7746 124.984 19.4554 124.331 18.8169C123.677 18.1784 123.35 17.3239 123.35 16.2535V6.84507H121.642V4.73239H123.35Z" fill="var(--fill-0, white)"/>
</g>
<defs>
<clipPath id="clip0_90_7881">
<rect width="128" height="20" fill="white"/>
</clipPath>
</defs>
</svg>
