<svg preserveAspectRatio="none" width="100%" height="100%" overflow="visible" style="display: block;" viewBox="0 0 60 38.2788" fill="none" xmlns="http://www.w3.org/2000/svg">
<g id="Group">
<path id="Vector" d="M49.6234 18.7605C49.6234 8.73389 40.7715 0 30.8172 0C23.4845 0 16.9415 4.46362 14.1225 10.8C14.0238 10.8 14.1225 10.8 14.0238 10.8C6.29616 10.7944 0 17.7827 0 25.5719C0 31.1128 2.2925 35.4272 6.91042 37.7309C7.64534 36.9575 9.47166 36.9464 10.415 36.4216C8.75868 35.8692 7.41499 34.7312 5.97258 33.6539C1.02559 29.9416 1.766 20.8873 5.0128 17.8324C10.2121 12.9379 15.9927 14.1808 15.9927 14.1808L16.7112 12.5677C17.9068 9.87742 20.3199 2.06608 31.3218 2.20419C42.9598 2.34782 46.1298 14.7443 46.1298 18.8765C46.1298 18.893 46.1298 18.9096 46.1298 18.9262V21.843L49.0091 21.5889C49.2395 21.5668 49.4643 21.5613 49.6837 21.5613C53.9122 21.5613 58.2285 24.8758 58.2285 29.1295C58.2285 33.3832 53.9122 35.604 49.6837 35.604H25.7879C26.0622 35.7421 28.8154 38.2722 33.351 38.2722H49.6837C55.3821 38.2722 60 35.0184 60 29.2787C60 23.539 55.3218 18.7605 49.6234 18.7605Z" fill="var(--fill-0, #4598D3)"/>
<path id="Vector_2" d="M41.9778 13.0208C40.8918 12.612 38.0948 12.8882 36.1258 13.6616C35.1606 14.0427 34.3982 14.5399 34.135 15.131C33.4165 16.7662 37.8315 19.6002 39.6085 19.0809C40.4586 18.8323 41.6761 17.0148 42.2191 15.4238C42.603 14.2913 42.6524 13.2749 41.9778 13.0208Z" fill="var(--fill-0, #4598D3)"/>
<path id="Vector_3" d="M32.1003 14.3631C31.5957 14.2968 30.5537 14.1587 30.2191 13.7775C29.4732 12.9268 28.2831 12.7003 27.4166 12.8937C26.4952 13.098 26.0071 14.1753 26.6378 15.5122C26.923 16.1143 26.8517 16.8435 26.561 17.3849C27.4659 16.5397 28.3105 15.8436 28.9358 15.5122C30.1698 14.8603 31.2667 14.5178 32.1003 14.3631Z" fill="var(--fill-0, #4598D3)"/>
<path id="Vector_4" d="M26.6655 23.4175C26.7258 23.7158 26.7971 23.992 26.8684 24.2627C26.8246 24.213 26.7971 24.1853 26.7971 24.1853C26.7971 24.1853 26.8575 24.3179 26.9452 24.5499C27.0714 24.9753 27.203 25.362 27.3511 25.7266C27.8337 27.29 28.3492 29.693 27.5814 31.2012C27.0056 32.3281 19.7002 36.0128 32.1884 38.2225L43.3986 35.6096C38.4626 34.9356 40.4425 32.3392 41.6216 30.2013C43.0311 27.638 43.5138 26.0028 43.8209 23.644C44.0019 22.2297 43.8703 21.1691 43.8319 20.915C43.8264 20.8763 43.8209 20.8542 43.8209 20.8542C43.8209 20.8542 43.8209 20.9315 43.799 21.0696L43.8209 20.7161C43.8209 20.7161 42.9269 24.3234 41.1719 25.6161C40.7606 25.9144 40.5028 26.1188 40.3328 26.2514C40.5083 25.5775 41.1719 22.7435 40.2231 21.1912C40.2231 21.1912 39.8282 27.7154 36.3785 28.0634C32.9233 28.4114 28.0586 24.8482 26.6655 23.423V23.4175ZM41.1226 26.7928C41.1226 26.7928 40.2231 29.8809 39.5924 31.284C39.0385 32.5215 38.863 32.4276 38.4571 32.5712C38.6107 32.1845 38.7149 31.6818 38.9178 30.831C39.1536 29.8091 38.9178 29.5384 38.9178 29.5384C38.6052 31.0686 38.1171 32.1679 37.7057 32.8861C37.1683 33.0684 36.5101 33.1844 36.033 32.991C35.3584 32.7204 35.2432 29.5163 35.2432 29.3395C38.1829 29.5439 39.7514 28.3396 41.128 26.7983L41.1226 26.7928Z" fill="var(--fill-0, #4598D3)"/>
<path id="Vector_5" d="M16.7279 23.202C16.5908 23.9809 16.5304 24.688 16.5524 25.3067C15.8833 26.3784 11.035 37.9794 5.01855 32.77C6.04962 33.6815 6.91617 37.7364 6.91617 37.7364C12.5761 41.0675 16.4975 28.0026 16.9418 27.1408C17.3092 27.9252 17.9235 29.5218 21.3458 29.5936C21.3458 29.5936 17.3312 27.6104 19.1246 22.3512C20.918 17.0921 23.567 12.6285 27.2032 10.5624C30.8394 8.49634 34.514 8.63997 37.8924 10.0929C37.8924 10.0929 32.7919 5.36959 26.929 8.93828C23.5615 10.9878 21.3184 13.2638 19.7772 15.6006C18.4829 15.8326 16.9089 15.6227 16.2727 15.6227C15.4664 15.6227 14.2215 16.1751 14.7864 18.1694C15.3348 20.1194 16.8595 22.0971 16.7334 23.2075L16.7279 23.202Z" fill="var(--fill-0, #4598D3)"/>
</g>
</svg>
