<svg preserveAspectRatio="none" width="100%" height="100%" overflow="visible" style="display: block;" viewBox="0 0 60 60" fill="none" xmlns="http://www.w3.org/2000/svg">
<g id="Isolation_Mode" clip-path="url(#clip0_44_647)">
<path id="Vector" d="M30.4206 6.34052C26.5687 6.34052 22.8096 7.27448 19.4392 9.0554C19.6365 9.33385 19.8047 9.6355 19.9497 9.95456C20.4834 11.1438 20.5704 12.4432 20.234 13.6498C19.9381 14.723 18.6445 15.1523 17.7685 14.4562C17.2813 14.0675 17.0782 13.4294 17.2464 12.8261C17.4379 12.1299 17.3103 11.3642 16.8346 10.7319C16.6547 10.4941 16.4343 10.2968 16.1791 10.146C15.4887 9.73412 14.6766 9.69351 13.9689 10.0126C12.7681 10.5521 12.2286 11.9675 12.7681 13.1683L13.1683 14.0559L12.5418 14.7984C9.83854 18.0006 8.02282 21.7248 7.28609 25.5593C7.23388 25.8262 7.18747 26.093 7.14686 26.3657L11.2076 28.8891H14.2299C18.337 28.8891 21.6784 25.5477 21.6784 21.4406C24.3527 21.6668 23.9466 25.5535 23.8074 25.8494C22.3107 29.0863 19.2246 31.4416 15.5525 31.8998L18.8823 34.2667V36.9351L10.204 31.9578H10.2794L6.90902 29.8579C6.90902 40.6884 14.2589 49.825 24.2367 52.5515C21.7364 50.1092 20.1818 46.6982 20.1818 42.9334C20.1818 37.0453 23.9872 32.0275 29.2662 30.2059C29.7477 23.0127 35.7459 17.3103 43.061 17.3103C43.9138 17.3103 44.6041 18.0006 44.6041 18.8533C44.6041 19.7061 43.9138 20.3964 43.061 20.3964C37.6893 20.4022 33.2283 24.3701 32.4509 29.5272C32.8454 29.4924 33.2399 29.475 33.6401 29.475H44.7781C45.6135 29.4924 46.2922 30.1769 46.2922 31.0181C46.2922 31.8592 45.6193 32.5437 44.7781 32.5612L33.6401 32.567C27.9261 32.567 23.2795 37.2136 23.2795 42.9276C23.2795 48.6416 27.4969 52.8415 32.8338 53.2534C44.6795 52.041 53.9495 42.011 53.9495 29.8521C53.9495 16.881 43.3975 6.32892 30.4264 6.32892L30.4206 6.34052ZM11.3642 22.8908C10.5695 22.8908 9.92555 22.2469 9.92555 21.4522C9.92555 20.6574 10.5695 20.0135 11.3642 20.0135C12.1589 20.0135 12.8029 20.6574 12.8029 21.4522C12.8029 22.2469 12.1589 22.8908 11.3642 22.8908Z" fill="var(--fill-0, #302220)"/>
<path id="Vector_2" d="M29.9971 0C13.4294 0 0 13.4294 0 29.9971C0 46.5648 13.4294 59.9942 29.9971 59.9942C46.5648 59.9942 59.9942 46.5648 59.9942 29.9971C59.9942 13.4294 46.5648 0 29.9971 0ZM33.6401 56.2873L32.8512 56.3686C32.0565 56.4382 31.2559 56.4788 30.438 56.4788C30.438 56.4788 30.4322 56.4788 30.4264 56.4788C30.4206 56.4788 30.4206 56.4788 30.4148 56.4788C15.744 56.4672 3.81127 44.5287 3.81127 29.8579C3.81127 29.2314 3.83448 28.5991 3.88089 27.9725L3.84608 27.9493L3.9505 26.9806C4.02011 26.3076 4.12453 25.6347 4.25215 24.9734C5.03529 20.8895 6.88582 16.9332 9.6239 13.4758C8.95098 10.7029 10.5405 7.73277 13.4932 6.89742C14.3923 6.64217 15.3553 6.63057 16.2603 6.85681C16.4285 6.89742 16.5851 6.94963 16.7476 7.00184C20.8721 4.5306 25.5767 3.22537 30.4206 3.22537C45.0972 3.22537 57.0415 15.1697 57.0415 29.8463C57.0415 43.4381 46.8027 54.6805 33.6401 56.2699V56.2873Z" fill="var(--fill-0, #302220)"/>
<path id="Vector_3" d="M30.4206 3.24277C25.5825 3.24277 20.8721 4.548 16.7476 7.01924C16.5909 6.96123 16.4285 6.91482 16.2603 6.87421C15.3495 6.64797 14.3923 6.65958 13.4932 6.91482C10.5347 7.74437 8.95098 10.7203 9.6239 13.4932C6.88582 16.9448 5.03529 20.9069 4.25215 24.9908C4.12453 25.6521 4.02591 26.3309 3.9505 26.998L3.84608 27.9667L3.88089 27.9899C3.83448 28.6165 3.81127 29.2488 3.81127 29.8753C3.81127 44.5461 15.744 56.4846 30.4148 56.4962C30.4148 56.4962 30.4206 56.4962 30.4264 56.4962C30.4322 56.4962 30.4322 56.4962 30.438 56.4962C31.2501 56.4962 32.0565 56.4556 32.8512 56.386L33.6401 56.3047C46.8085 54.7095 57.0415 43.4671 57.0415 29.8811C57.0415 15.2045 45.0972 3.26018 30.4206 3.26018V3.24277ZM32.8338 53.265C27.4969 52.8531 23.2795 48.3805 23.2795 42.9392C23.2795 37.2252 27.9261 32.5786 33.6401 32.5786H44.7781C45.6135 32.5554 46.2922 31.8708 46.2922 31.0297C46.2922 30.1885 45.6193 29.504 44.7781 29.4866H33.6401C33.2399 29.4866 32.8454 29.504 32.4509 29.5388C33.2283 24.3817 37.6893 20.4138 43.061 20.4138C43.9138 20.408 44.6041 19.7177 44.6041 18.8649C44.6041 18.0122 43.9138 17.3219 43.061 17.3219C35.7517 17.3219 29.7477 23.0301 29.2662 30.2175C23.9872 32.0391 20.1818 37.0511 20.1818 42.945C20.1818 46.7099 21.7364 50.1209 24.2367 52.5631C14.2647 49.8366 6.90902 40.6942 6.90902 29.8695L10.2794 31.9636H10.204L18.8765 36.9409V34.2725L15.5525 31.9056C19.2188 31.4416 22.3107 29.0921 23.8074 25.8552C23.9466 25.5593 24.3527 21.6726 21.6784 21.4464C21.6784 25.5535 18.337 28.8949 14.2299 28.8949H11.2076L7.14686 26.3715C7.18747 26.0988 7.23388 25.832 7.28609 25.5651C8.01702 21.7306 9.83854 18.0064 12.5418 14.8042L13.1683 14.0617L12.7681 13.1741C12.2286 11.9733 12.7681 10.5579 13.9689 10.0184C14.6824 9.69931 15.4887 9.73992 16.1791 10.1518C16.4343 10.3026 16.6547 10.4999 16.8346 10.7377C17.3103 11.3642 17.4379 12.1357 17.2464 12.8319C17.0782 13.4294 17.2813 14.0733 17.7685 14.462C18.6387 15.1581 19.9323 14.7288 20.234 13.6556C20.5646 12.449 20.4776 11.1496 19.9497 9.96036C19.8047 9.6413 19.6365 9.33965 19.4392 9.0612C22.8096 7.28029 26.5629 6.34632 30.4206 6.34632C43.3917 6.34632 53.9437 16.8984 53.9437 29.8695C53.9437 42.0284 44.6737 52.0642 32.828 53.2708L32.8338 53.265Z" fill="var(--fill-0, white)"/>
<path id="Vector_4" d="M11.3642 22.8908C12.1588 22.8908 12.8029 22.2467 12.8029 21.4522C12.8029 20.6576 12.1588 20.0135 11.3642 20.0135C10.5697 20.0135 9.92555 20.6576 9.92555 21.4522C9.92555 22.2467 10.5697 22.8908 11.3642 22.8908Z" fill="var(--fill-0, white)"/>
</g>
<defs>
<clipPath id="clip0_44_647">
<rect width="60" height="60" fill="white"/>
</clipPath>
</defs>
</svg>
