<svg preserveAspectRatio="none" width="100%" height="100%" overflow="visible" style="display: block;" viewBox="0 0 60 59" fill="none" xmlns="http://www.w3.org/2000/svg">
<g id="Isolation_Mode" clip-path="url(#clip0_44_653)">
<g id="Group">
<g id="Vector">
</g>
<path id="Vector_2" d="M34.0224 7.30417C34.1843 7.21077 34.3649 7.10491 34.5641 6.99905C34.5019 7.03018 34.4334 7.06132 34.3711 7.09868C34.2653 7.15472 34.1469 7.22945 34.0224 7.30417Z" fill="var(--fill-0, white)"/>
<path id="Vector_3" d="M37.1482 6.06501C37.0486 6.08369 36.9427 6.1086 36.8369 6.13974C36.9365 6.11483 37.0423 6.09615 37.1482 6.06501Z" fill="var(--fill-0, white)"/>
<path id="Vector_4" d="M19.533 36.745C20.3051 27.5167 24.8817 19.8701 24.8817 19.8701C24.0847 19.6459 23.5056 19.1602 23.1631 18.4254C22.335 20.0071 17.1482 30.2379 17.4471 39.0926C17.7646 48.7194 23.7049 53.5265 23.7049 53.5265C22.6837 52.5053 18.7609 45.9795 19.533 36.7512V36.745Z" fill="var(--fill-0, white)"/>
<path id="Vector_5" d="M41.208 23.9113C41.6625 24.0919 42.2852 23.9861 42.7895 23.8117C43.1818 23.1392 43.6364 22.1118 43.9352 20.6734C43.9352 20.6734 44.1594 20.9287 43.9352 21.8876C43.7484 22.6846 43.6426 23.1579 43.4994 23.519C43.8792 23.3821 44.0473 23.4755 44.5704 22.311C45.1681 20.9909 46.0149 18.0954 46.0149 18.0954C44.7136 19.5401 43.2379 20.6733 40.4545 20.4803C40.4545 20.6484 40.5604 23.6498 41.2017 23.9051L41.208 23.9113Z" fill="var(--fill-0, white)"/>
<path id="Vector_6" d="M32.7895 2.41604C29.3524 4.35261 25.9651 8.73636 24.2715 13.6743C24.1158 14.1351 23.9913 14.5647 23.8979 14.9633C23.8979 14.9633 23.8979 14.9633 23.8979 14.9695C22.995 18.8302 24.8879 19.8701 24.8879 19.8701C24.8879 19.8701 28.2005 21.433 29.3524 20.2499C24.5019 19.5401 25.7098 17.0555 26.9489 14.8263C27.5778 13.693 30.0311 10.8161 32.1357 8.85467C32.4097 8.34406 32.4782 7.66533 32.2105 7.09868C31.6127 5.84084 32.0735 4.83208 32.9452 4.63905C33.7671 4.45847 34.8941 4.67018 35.5978 5.46723C35.9153 5.82216 36.8991 5.95916 37.3724 6.0152C37.3661 6.0152 37.3537 6.0152 37.3474 6.0152C38.7983 5.76612 39.8443 6.02142 41.3138 5.77235C42.4658 5.32401 43.9166 5.05003 45.0996 5.00644C44.2715 3.7486 43.2877 2.67135 42.2354 1.88053C39.0785 0.554195 36.208 0.491926 32.802 2.40982L32.7895 2.41604Z" fill="var(--fill-0, white)"/>
<path id="Vector_7" d="M44.589 10.866C42.9078 11.3579 38.736 8.69277 39.4147 7.16095C39.6638 6.60053 40.3861 6.13351 41.2951 5.77857C39.8257 6.03388 38.7858 5.77858 37.3288 6.02142C37.2665 6.03388 37.2042 6.04633 37.142 6.05879C37.0361 6.08369 36.9303 6.1086 36.8306 6.13351C36.1768 6.29541 35.411 6.56939 34.5641 6.99905C34.3649 7.10491 34.1843 7.21076 34.0224 7.30417C33.4807 7.65288 32.8207 8.20084 32.1233 8.84844C30.0187 10.8099 27.5654 13.6868 26.9365 14.8201C25.7036 17.0493 24.4956 19.5338 29.34 20.2437C28.188 21.4268 24.8755 19.8639 24.8755 19.8639C24.8755 19.8639 20.2989 27.5105 19.5268 36.7388C18.7547 45.9671 22.6775 52.4991 23.6986 53.5141C23.6986 53.5141 21.9738 48.5948 21.7808 44.7653C21.5878 40.9357 22.609 38.6318 22.609 38.6318C22.609 38.6318 23.8232 42.1437 28.3562 45.5312C32.8892 48.9186 32.6339 46.9385 32.8269 46.5524C33.0199 46.1663 32.7646 43.9371 31.8057 41.5086C30.8468 39.0801 30.0809 37.7413 29.8257 32.8221C29.5704 27.9028 32.061 24.4593 33.213 22.2239C33.9415 20.8103 33.4496 18.5562 32.995 17.0929C32.858 16.7566 32.7273 16.3892 32.609 15.9907C32.528 15.7728 32.472 15.6482 32.472 15.6482C32.472 15.6482 32.4969 15.6731 32.5342 15.723C32.4658 15.4677 32.3973 15.2061 32.3412 14.9321C33.655 16.2709 38.2565 19.6085 41.5193 19.2847C44.7821 18.9609 45.1557 12.8399 45.1557 12.8399C46.0523 14.297 45.4234 16.9559 45.2553 17.5848C45.411 17.4603 45.66 17.2735 46.0461 16.987C47.7086 15.7728 48.5492 12.3916 48.5492 12.3916C48.3499 9.90702 47.6712 8.36274 47.0423 7.42871C46.5318 8.92317 45.3798 10.6293 44.5766 10.8597L44.589 10.866Z" fill="var(--fill-0, #7F6B5F)"/>
<path id="Vector_8" d="M39.4147 7.16095C38.736 8.69277 42.9078 11.3517 44.589 10.866C45.3923 10.6356 46.538 8.92939 47.0548 7.43493C47.4222 6.37636 47.4595 5.42364 46.8244 5.18079C46.4321 5.03135 45.8095 4.98153 45.0809 5.01267C43.8979 5.06248 42.4471 5.33024 41.2951 5.77858C40.3861 6.13351 39.6638 6.60053 39.4147 7.16095Z" fill="var(--fill-0, #302220)"/>
<path id="Vector_9" d="M34.3711 7.09868C34.4396 7.06132 34.5019 7.03641 34.5641 6.99905C35.411 6.56939 36.1831 6.30164 36.8306 6.13351C36.9365 6.1086 37.0423 6.08369 37.142 6.05879C37.2042 6.04633 37.2665 6.03388 37.3288 6.02143C37.335 6.02143 37.3474 6.02143 37.3537 6.02143C36.8742 5.95916 35.8904 5.82839 35.5791 5.47346C34.8755 4.67641 33.7484 4.4647 32.9265 4.64528C32.061 4.83831 31.594 5.84707 32.1918 7.10491C32.4595 7.67156 32.391 8.35029 32.1171 8.8609C32.8144 8.2133 33.4745 7.66533 34.0162 7.31662C34.1407 7.23567 34.2528 7.16718 34.3649 7.11113L34.3711 7.09868Z" fill="var(--fill-0, #302220)"/>
<path id="Vector_10" d="M48.5616 15.1439C48.736 13.8175 48.6052 12.8212 48.5679 12.5846C48.5679 12.5472 48.5616 12.5285 48.5616 12.5285C48.5616 12.5285 48.5616 12.6033 48.543 12.7278L48.5616 12.3978C48.5616 12.3978 47.721 15.7852 46.0585 16.9932C45.6725 17.2735 45.4234 17.4603 45.2677 17.591C45.4359 16.9621 46.0648 14.3032 45.1681 12.8461C45.1681 12.8461 44.7945 18.9672 41.5318 19.291C38.269 19.6148 33.6737 16.2772 32.3537 14.9384C32.4097 15.2186 32.4782 15.4801 32.5467 15.7292C32.5031 15.6794 32.4844 15.6545 32.4844 15.6545C32.4844 15.6545 32.5405 15.779 32.6214 15.9969C32.7397 16.3955 32.8643 16.7628 33.0075 17.0991C33.462 18.5687 33.9539 20.8228 33.2254 22.2301C32.0735 24.4655 29.5828 27.9152 29.8381 32.8283C30.0934 37.7475 30.8593 39.0863 31.8182 41.5148C32.7771 43.9433 33.0324 46.1788 32.8394 46.5586C32.6463 46.9447 32.9016 48.9186 28.3686 45.5374C23.8356 42.15 22.6214 38.638 22.6214 38.638C22.6214 38.638 21.6002 40.9357 21.7933 44.7715C21.9863 48.6011 23.7111 53.5203 23.7111 53.5203C23.7111 53.5203 17.7709 48.7131 17.4533 39.0863C17.1606 30.2317 22.3412 20.0008 23.1694 18.4192C23.5118 19.154 24.0909 19.6397 24.8879 19.8639C24.8879 19.8639 22.995 18.824 23.8979 14.9633C23.8979 14.9633 23.8979 14.9633 23.8979 14.957C23.9913 14.5585 24.1158 14.1289 24.2715 13.6681C25.9651 8.73636 29.3524 4.34638 32.7895 2.40982C36.1893 0.491926 39.066 0.560422 42.2229 1.88053C42.254 1.89298 42.2852 1.90544 42.3163 1.91789C42.3163 1.91789 38.1445 -2.00507 32.609 1.34501C29.4271 3.26913 27.3101 5.40496 25.8531 7.59061C24.6326 7.80855 23.1445 7.60929 22.5405 7.60929C21.7808 7.60929 20.604 8.12612 21.1332 9.99419C21.6563 11.8249 23.0884 13.6805 22.9701 14.7204C22.8394 15.4552 22.7833 16.1153 22.802 16.6944C22.0672 17.8588 18.6426 23.4319 17.6027 27.8654C17.6027 27.8654 19.5579 8.29425 13.5554 4.94417C7.55293 1.60654 2.71482 4.28412 1.10212 8.69277C-2.34745 18.1141 2.76463 32.8345 9.98132 44.7092C17.198 56.5902 24.0349 58.7385 28.8854 58.9502C36.9925 59.3113 34.6326 57.5429 37.5716 57.3561C40.5106 57.1631 40.0623 58.9502 44.9128 58.2528C48.4558 57.7422 49.066 55.3759 47.721 54.2925C46.3823 53.209 46.8244 50.6497 48.1071 45.1576C49.3836 39.6654 47.5529 29.995 46.2765 27.5043C45 25.0135 45.1245 23.7432 46.4882 21.2898C47.8207 18.8862 48.2752 17.3544 48.5679 15.1439H48.5616ZM46.0149 18.1016C46.0149 18.1016 45.1619 20.9971 44.5704 22.3173C44.0473 23.4817 43.8792 23.3883 43.4994 23.5253C43.6426 23.1641 43.7422 22.6909 43.9352 21.8938C44.1594 20.9349 43.9352 20.6796 43.9352 20.6796C43.6426 22.118 43.1818 23.1454 42.7895 23.8179C42.2852 23.9861 41.6625 24.0982 41.208 23.9176C40.5666 23.6623 40.4608 20.6609 40.4608 20.4928C43.2379 20.6858 44.7198 19.5587 46.0212 18.1079L46.0149 18.1016Z" fill="var(--fill-0, #302220)"/>
</g>
<path id="Vector_11" d="M46.6936 59.0062C54.0425 59.0062 60 53.0485 60 45.6993C60 38.3501 54.0425 32.3924 46.6936 32.3924C39.3448 32.3924 33.3873 38.3501 33.3873 45.6993C33.3873 53.0485 39.3448 59.0062 46.6936 59.0062Z" fill="var(--fill-0, #C74022)"/>
<g id="Group_2">
<path id="Vector_12" d="M45.1743 51.509H39.0349V39.6592H45.1743V40.942H40.4359V44.84H44.8817V46.1227H40.4359V50.2201H45.1743V51.5028V51.509Z" fill="var(--fill-0, white)"/>
<path id="Vector_13" d="M53.3375 51.509H47.198V39.6592H53.3375V40.942H48.599V44.84H53.0448V46.1227H48.599V50.2201H53.3375V51.5028V51.509Z" fill="var(--fill-0, white)"/>
</g>
</g>
<defs>
<clipPath id="clip0_44_653">
<rect width="60" height="59" fill="white"/>
</clipPath>
</defs>
</svg>
