<svg preserveAspectRatio="none" width="100%" height="100%" overflow="visible" style="display: block;" viewBox="0 0 60 50.1641" fill="none" xmlns="http://www.w3.org/2000/svg">
<g id="Group 1234">
<path id="Vector" d="M49.4973 21.512H40.3986L40.4658 21.4856L39.4578 18.8911C39.4026 18.7471 39.4506 18.5815 39.5754 18.4903L42.2274 16.5535L43.9411 19.6375L45.2395 19.6015L47.1308 8.4076L47.774 4.90349C48.0596 3.34104 47.0804 1.82179 45.5419 1.44498C43.2523 0.88336 38.9705 -0.0550692 36.04 0.00253262C31.4223 0.0889353 26.3485 1.75219 26.1349 1.82179L25.8757 1.90819L7.06874 16.8943C0.775739 21.9056 -1.57634 30.0539 1.07335 37.6525C3.72303 45.2536 10.6304 50.1641 18.6683 50.1641H29.0822V50.1281C29.3126 50.1425 29.543 50.1545 29.7783 50.1545H49.4949C55.2887 50.1545 60 45.436 60 39.635V32.0339C60 26.233 55.2863 21.5144 49.4949 21.5144L49.4973 21.512ZM56.9447 39.6326C56.9447 43.7439 53.6038 47.092 49.4973 47.092H29.7807C25.6741 47.092 22.3332 43.7463 22.3332 39.6326V32.0315C22.3332 29.5139 23.5885 27.2866 25.5037 25.9353C26.7158 25.0809 28.1894 24.5721 29.7807 24.5721H49.4973C53.6038 24.5721 56.9447 27.9178 56.9447 32.0315V39.6326ZM18.6683 47.1016C10.5128 47.1016 5.72229 41.699 3.96064 36.6445C2.19658 31.5899 2.5878 24.3753 8.972 19.2919L20.2692 10.2941C22.77 13.2557 27.1958 13.731 30.2607 11.3117C30.2607 11.3117 24.7717 12.0797 22.8708 8.22039L27.347 4.65388C28.391 4.33227 32.4951 3.13463 36.1 3.06743C38.7521 3.01943 42.9931 3.97706 44.7571 4.40907L43.3771 11.9237L37.7705 16.0182C36.5273 16.9279 36.0472 18.5671 36.6041 20.0024L37.1897 21.512H29.7759C28.1198 21.512 26.5525 21.8984 25.1581 22.5872C18.0011 22.0184 12.7713 27.7402 12.7713 27.7402C12.7713 27.7402 16.7986 25.7481 21.4908 25.5753C20.1011 27.3586 19.2707 29.6003 19.2707 32.0315V39.6326C19.2707 42.5511 20.4636 45.1936 22.386 47.1016H18.6659H18.6683Z" fill="var(--fill-0, #372823)"/>
<path id="Vector_2" d="M40.4709 27.0154L35.3084 43.7487H38.9421L44.1047 27.0154H40.4709Z" fill="var(--fill-0, #372823)"/>
<path id="Vector_3" d="M35.6892 31.746L36.354 29.5907L36.9036 27.8075L37.0476 27.3419L36.6684 27.5819L33.4979 29.5955L25.0233 34.9717L32.3555 42.5488L33.3611 39.2894L29.7226 35.5309L35.6892 31.746Z" fill="var(--fill-0, #372823)"/>
<path id="Vector_4" d="M46.3358 30.6012L49.9743 34.3597L44.0077 38.1446L42.6468 42.5488L54.6736 34.9165L47.3414 27.3419L46.3358 30.6012Z" fill="var(--fill-0, #372823)"/>
<path id="Vector_5" d="M35.1203 4.2339C33.8506 4.2339 32.821 5.26593 32.821 6.53557H37.4195C37.4195 5.26353 36.3899 4.2339 35.1203 4.2339Z" fill="var(--fill-0, #372823)"/>
</g>
</svg>
