<svg preserveAspectRatio="none" width="100%" height="100%" overflow="visible" style="display: block;" viewBox="0 0 69 54" fill="none" xmlns="http://www.w3.org/2000/svg">
<g id="Mastercard-logo 1" clip-path="url(#clip0_44_687)">
<path id="XMLID_1775_" d="M12.5059 53.8817V50.2979C12.5059 48.9271 11.6772 48.0294 10.2547 48.0294C9.54343 48.0294 8.77002 48.266 8.23829 49.0454C7.82396 48.3912 7.23008 48.0294 6.33927 48.0294C5.7454 48.0294 5.15152 48.2103 4.68195 48.8644V48.1477H3.43895V53.8817H4.68195V50.7155C4.68195 49.6995 5.21367 49.2193 6.04233 49.2193C6.871 49.2193 7.28533 49.7552 7.28533 50.7155V53.8817H8.52832V50.7155C8.52832 49.6995 9.1222 49.2193 9.88871 49.2193C10.7174 49.2193 11.1317 49.7552 11.1317 50.7155V53.8817H12.5059ZM30.9437 48.1477H28.9272V46.4149H27.6842V48.1477H26.5586V49.282H27.6842V51.9124C27.6842 53.2276 28.216 54 29.6385 54C30.1702 54 30.7641 53.8191 31.1784 53.5825L30.8194 52.5039C30.4603 52.7405 30.0459 52.8031 29.749 52.8031C29.1551 52.8031 28.9203 52.4412 28.9203 51.8497V49.282H30.9367V48.1477H30.9437ZM41.4953 48.0224C40.784 48.0224 40.3075 48.3843 40.0106 48.8575V48.1407H38.7676V53.8747H40.0106V50.6459C40.0106 49.6925 40.4249 49.1497 41.1984 49.1497C41.4331 49.1497 41.7301 49.2124 41.9718 49.268L42.3309 48.0711C42.0823 48.0224 41.7301 48.0224 41.4953 48.0224ZM25.5504 48.6209C24.9566 48.2034 24.1279 48.0224 23.2371 48.0224C21.8146 48.0224 20.8685 48.7392 20.8685 49.8735C20.8685 50.8268 21.5798 51.3696 22.8228 51.5436L23.4166 51.6062C24.0658 51.7245 24.4248 51.9054 24.4248 52.2046C24.4248 52.6222 23.9484 52.9214 23.1197 52.9214C22.291 52.9214 21.635 52.6222 21.2207 52.3229L20.6268 53.2763C21.2759 53.7564 22.1667 53.993 23.0575 53.993C24.7149 53.993 25.6678 53.2137 25.6678 52.142C25.6678 51.126 24.8944 50.5902 23.7136 50.4093L23.1197 50.3467C22.588 50.284 22.1736 50.1657 22.1736 49.8108C22.1736 49.3933 22.588 49.1567 23.244 49.1567C23.9553 49.1567 24.6665 49.4559 25.0256 49.6369L25.5504 48.6209ZM58.621 48.0224C57.9097 48.0224 57.4332 48.3843 57.1363 48.8575V48.1407H55.8933V53.8747H57.1363V50.6459C57.1363 49.6925 57.5506 49.1497 58.3241 49.1497C58.5588 49.1497 58.8558 49.2124 59.0975 49.268L59.4566 48.0851C59.2149 48.0224 58.8627 48.0224 58.621 48.0224ZM42.7383 51.0147C42.7383 52.7474 43.926 54 45.7629 54C46.5916 54 47.1854 53.8191 47.7793 53.3459L47.1854 52.3299C46.709 52.6918 46.2394 52.8657 45.7008 52.8657C44.6925 52.8657 43.9813 52.149 43.9813 51.0147C43.9813 49.9361 44.6925 49.2193 45.7008 49.1637C46.2325 49.1637 46.709 49.3446 47.1854 49.6995L47.7793 48.6835C47.1854 48.2033 46.5916 48.0294 45.7629 48.0294C43.926 48.0224 42.7383 49.282 42.7383 51.0147ZM54.236 51.0147V48.1477H52.993V48.8644C52.5787 48.3286 51.9848 48.0294 51.2114 48.0294C49.6093 48.0294 48.3663 49.282 48.3663 51.0147C48.3663 52.7474 49.6093 54 51.2114 54C52.04 54 52.6339 53.7008 52.993 53.1649V53.8817H54.236V51.0147ZM49.6714 51.0147C49.6714 49.9987 50.3206 49.1637 51.3909 49.1637C52.3991 49.1637 53.1104 49.943 53.1104 51.0147C53.1104 52.0307 52.3991 52.8657 51.3909 52.8657C50.3275 52.8031 49.6714 52.0237 49.6714 51.0147ZM34.7969 48.0224C33.1396 48.0224 31.9519 49.2193 31.9519 51.0077C31.9519 52.8031 33.1396 53.993 34.8591 53.993C35.6877 53.993 36.5164 53.7564 37.1724 53.2137L36.5786 52.316C36.1021 52.6778 35.5082 52.9144 34.9212 52.9144C34.1478 52.9144 33.3813 52.5526 33.2018 51.5436H37.4072C37.4072 51.3626 37.4072 51.2443 37.4072 51.0634C37.4625 49.2193 36.3921 48.0224 34.7969 48.0224ZM34.7969 49.101C35.5704 49.101 36.1021 49.5812 36.2195 50.4719H33.257C33.3744 49.6995 33.9061 49.101 34.7969 49.101ZM65.6784 51.0147V45.8791H64.4354V48.8644C64.0211 48.3286 63.4272 48.0294 62.6538 48.0294C61.0517 48.0294 59.8087 49.282 59.8087 51.0147C59.8087 52.7474 61.0517 54 62.6538 54C63.4825 54 64.0764 53.7008 64.4354 53.1649V53.8817H65.6784V51.0147ZM61.1139 51.0147C61.1139 49.9987 61.763 49.1637 62.8334 49.1637C63.8416 49.1637 64.5528 49.943 64.5528 51.0147C64.5528 52.0307 63.8416 52.8657 62.8334 52.8657C61.763 52.8031 61.1139 52.0237 61.1139 51.0147ZM19.5012 51.0147V48.1477H18.2582V48.8644C17.8439 48.3286 17.25 48.0294 16.4766 48.0294C14.8745 48.0294 13.6315 49.282 13.6315 51.0147C13.6315 52.7474 14.8745 54 16.4766 54C17.3052 54 17.8991 53.7008 18.2582 53.1649V53.8817H19.5012V51.0147ZM14.8814 51.0147C14.8814 49.9987 15.5305 49.1637 16.6009 49.1637C17.6091 49.1637 18.3204 49.943 18.3204 51.0147C18.3204 52.0307 17.6091 52.8657 16.6009 52.8657C15.5305 52.8031 14.8814 52.0237 14.8814 51.0147Z" fill="var(--fill-0, black)"/>
<g id="Group">
<path id="rect19" d="M43.8086 4.59974H25.1361V38.4054H43.8086V4.59974Z" fill="var(--fill-0, #FF5A00)"/>
<path id="XMLID_330_" d="M26.3791 21.5026C26.3791 14.6343 29.5833 8.5384 34.5 4.59974C30.8815 1.73273 26.317 0 21.3381 0C9.54343 0 0 9.61701 0 21.5026C0 33.3881 9.54343 43.0052 21.3381 43.0052C26.317 43.0052 30.8815 41.2724 34.5 38.4054C29.5764 34.5224 26.3791 28.3709 26.3791 21.5026Z" fill="var(--fill-0, #EB001B)"/>
<path id="path22" d="M69 21.5026C69 33.3881 59.4566 43.0052 47.6619 43.0052C42.683 43.0052 38.1185 41.2724 34.5 38.4054C39.4789 34.4598 42.6209 28.3709 42.6209 21.5026C42.6209 14.6343 39.4167 8.5384 34.5 4.59974C38.1116 1.73273 42.6761 0 47.655 0C59.4566 0 69 9.67964 69 21.5026Z" fill="var(--fill-0, #F79E1B)"/>
</g>
</g>
<defs>
<clipPath id="clip0_44_687">
<rect width="69" height="54" fill="white"/>
</clipPath>
</defs>
</svg>
