<svg preserveAspectRatio="none" width="100%" height="100%" overflow="visible" style="display: block;" viewBox="0 0 223.983 69.9735" fill="none" xmlns="http://www.w3.org/2000/svg">
<g id="Group">
<g id="Group_2">
<path id="Vector" d="M43.6242 45.5625C41.5951 47.0213 39.7319 48.0693 38.1485 49.41C37.2288 50.1889 33.9007 49.2448 33.1232 48.7349C30.0938 46.7522 30.274 46.6294 29.1456 44.3493L28.4203 42.8858C27.5527 41.1297 27.7945 34.0816 27.9225 31.8203C27.8419 33.246 28.6004 27.378 28.7901 28.7848C28.9844 27.6046 29.7382 25.8862 30.4683 25.1592C30.6153 25.0129 30.7291 24.5927 30.8097 24.4842C31.0278 24.1773 32.7913 24.1726 32.9241 24.4181L33.5831 25.6408C34.0998 26.5991 34.7398 27.3544 34.7161 28.5016C34.6829 30.0547 34.7446 32.6984 34.0619 34.1382L33.0189 36.3286C31.4023 39.7323 30.4588 39.907 31.6204 42.1447C32.0565 42.9803 32.3504 43.8536 33.1801 44.59C33.8391 45.1754 34.6782 45.4823 35.5695 45.9024C35.9819 46.096 36.4418 46.4548 37.0249 46.4925C37.9067 46.5492 38.1058 45.9496 38.6605 45.6145L40.2155 44.6703L42.0265 43.5987L43.6668 42.6215L45.4731 41.5074L46.9191 40.6623C47.469 40.3413 47.853 40.1431 48.6115 39.8504L48.6779 33.8219C48.6779 33.6661 49.0714 33.2743 49.1804 33.2365C48.512 33.4584 48.5689 30.2247 48.7348 29.7715C49.0856 29.2947 49.3938 28.8462 49.4507 28.4119C49.5265 27.7746 49.1093 27.227 48.7063 26.8446L48.6542 22.8272C49.9153 22.3834 51.2948 22.6195 52.2288 23.4786L52.1956 26.3819L51.4987 26.9059V37.9951C51.4987 38.1886 52.0866 38.1178 52.1435 37.9196C52.371 37.1029 52.9399 35.9935 53.2007 35.3137C54.3195 32.3868 53.798 33.8974 55.59 30.98L56.6899 29.1908C57.3773 28.0767 58.9845 25.9712 59.871 25.0554L61.0468 23.8374C61.5019 23.3701 61.8148 22.9405 62.6539 23.0254C64.4128 23.2096 66.8258 25.2489 66.7358 27.5244L67.3805 28.072L67.3521 30.4654L65.9203 31.1924C64.5929 31.8628 65.4794 31.1122 64.5455 29.2333C64.0714 28.2797 64.0619 27.1137 63.2323 26.127C60.2361 27.699 59.4823 30.3002 57.9937 32.8494C57.4532 33.7747 57.0313 34.8794 56.5572 35.8471L55.4526 38.1084L54.3432 40.5962L53.1722 43.542C52.6934 44.7458 52.0866 46.2046 52.1198 47.583L51.2427 49.2872C50.8492 50.052 48.8059 49.6885 48.7443 48.7774C48.5878 46.5114 48.6542 44.4343 48.64 42.1588C48.3508 42.1447 47.7914 42.2202 47.6491 42.3902C47.0755 43.0841 45.8476 43.948 45.0986 44.4909L43.6242 45.5531V45.5625Z" fill="var(--fill-0, #302220)"/>
<path id="Vector_2" d="M6.7262 55.6698L4.31311 53.536L2.9762 52.2661C2.28877 50.7932 2.83397 49.1598 3.89592 48.0551C4.08081 46.9646 5.10957 46.8183 5.92974 46.2329C6.37064 45.9213 7.49896 45.2132 7.82608 45.8883C8.39498 47.0543 7.31407 47.8096 6.63612 48.4517C6.28056 48.7916 6.25686 49.8112 6.21893 50.4108C6.12411 51.9262 8.04415 52.8373 8.26697 52.8326C8.19586 52.8326 11.6851 51.2511 11.9648 50.9584C14.2736 50.6091 15.9519 49.037 16.0704 46.6766C16.6867 46.247 16.7104 45.5673 16.7673 44.7647C16.8337 43.8158 16.388 43.5231 15.9898 42.9189C15.3451 41.9417 14.8567 41.1911 13.9702 40.4027C10.7512 37.5277 8.79795 34.9077 5.66425 32.2074C5.39877 31.9808 4.79194 31.4521 4.61653 31.1594L3.46924 29.2522L2.28403 27.0334C1.73409 26.0043 1.13675 24.3378 0.852298 23.3842C0.781186 23.1529 0.349769 22.6667 0.340287 22.4448C0.321324 21.9916 0.340287 21.0238 0.198062 20.6037C-0.32343 19.0883 0.283397 17.7806 0.880743 16.4352L2.26033 13.31C3.3128 12.6397 4.35578 11.7474 5.41773 11.299L7.0628 10.6097C8.60357 10.0385 10.5663 10.7278 12.1592 10.2698C13.1216 9.99131 13.6573 10.1754 14.6766 10.251L19.2231 10.5861C16.7768 10.4067 23.1058 11.5775 22.1055 11.3745C22.6033 11.4784 23.5562 12.1912 23.3239 12.6444C22.8214 13.6216 21.7689 14.2778 20.797 14.4053C20.4367 13.6452 19.773 12.956 18.9054 12.8993C16.17 12.7294 10.4715 12.465 7.95882 13.395C7.47999 13.5744 6.79257 13.9237 6.27108 14.1551L4.75875 15.5902C4.12348 16.1944 4.07133 17.521 3.71103 18.333C3.49769 18.8145 3.2559 19.2441 3.12316 19.7209C2.98094 20.2402 3.67784 20.7972 3.78214 21.2079L4.28467 23.2001C4.40319 23.6675 4.71134 24.2104 4.91994 24.6211C6.27108 27.3402 5.7164 26.0279 7.31406 28.6337C7.75022 29.3419 8.20534 29.9933 8.65098 30.6306C9.39055 31.6928 9.87886 32.6559 11.0451 33.4678C13.5672 35.2193 13.278 34.9691 15.6105 37.3814L18.0758 39.9306C18.5925 40.4641 19.4791 41.3752 19.4933 42.1541L19.5881 46.4028C19.6355 48.395 18.986 49.7688 17.5021 51.067C16.535 51.912 15.5299 52.809 14.3684 53.5596C12.6001 54.7067 11.121 54.3196 10.0021 55.5234L6.73094 55.6886L6.7262 55.6698Z" fill="var(--fill-0, #302220)"/>
</g>
<path id="Vector_3" d="M221.7 31.301C220.751 28.5913 221.501 29.7148 220.514 27.9351C220.287 27.5196 220.254 26.4102 219.618 26.0892C217.428 27.3922 215.707 30.2341 214.579 32.4954L213.398 34.8558C212.948 35.7574 212.588 36.6685 212.123 37.6694L211.35 39.3452C210.303 41.6207 210.298 42.1872 209.317 43.7969L208.857 45.9213C208.691 46.6861 208.629 47.1298 208.198 47.6822C208.089 48.0787 207.923 48.801 207.771 49.2636C207.515 50.0378 205.405 49.7593 205.315 48.9237C205.05 46.4925 205.239 44.2879 205.126 41.6537L203.447 43.0369C203.172 43.2635 202.528 43.5845 202.196 43.8442L199.147 46.2234C198.541 46.7002 197.479 47.059 196.787 47.5217C195.848 48.1448 195.032 49.3533 193.857 49.6366C191.818 50.1323 188.85 48.7538 187.262 47.2998C186.276 46.3981 185.868 45.4539 185.299 44.321L184.119 41.9606L182.929 43.8017C182.829 43.9527 180.488 46.3415 180.374 46.417L178.141 47.8474C175.197 49.731 173.481 47.5122 171.627 45.6286C171.063 45.0527 170.664 44.4059 170.19 43.7073L168.934 41.8378C168.73 41.6443 168.275 42.2202 168.048 42.6451L166.099 46.2329C165.886 46.6247 165.312 47.2998 165.013 47.7152L163.857 49.3156C162.373 51.3691 158.585 54.99 155.902 54.3054C155.603 53.5124 155.323 53.0308 154.603 52.6012C154.029 48.2864 155.195 48.1401 155.285 46.8655C155.337 46.1432 155.541 45.1754 155.84 44.5523L156.987 42.173L157.845 40.516C158.817 38.6371 158.59 39.0573 159.694 37.4616L161.425 34.9596L162.695 33.1185C163.601 31.8108 164.516 30.6165 166.042 29.9981C166.815 29.6865 166.967 28.6479 166.853 27.7746C166.805 27.3969 167.152 26.651 167.175 26.2781L167.422 22.1851C167.758 21.85 168.052 21.3354 168.043 20.7783C168.005 18.5265 168.517 19.6689 168.597 16.6004C169.204 16.0387 169.138 15.4344 169.299 14.6083C170.024 10.8694 170.024 12.2856 170.489 9.90634C171.167 6.45543 171.347 7.09746 171.665 5.44046C172.395 1.64022 172.698 3.45773 172.807 1.45139C172.831 1.01235 172.907 0.450579 173.134 0.271188C173.613 -0.106476 175.173 -0.0828717 175.647 0.299513C175.87 0.478903 176.079 1.08317 176.079 1.42306L175.969 13.2392C175.96 14.2967 175.42 15.3589 175.614 16.5343C175.728 17.2189 175.415 17.7665 174.988 18.248L174.77 20.7689L174.239 23.9224C174.173 24.3189 173.642 24.9138 173.67 25.4189C173.718 26.2309 173.533 26.8823 173.39 27.5904L172.902 29.9745L172.641 32.2074C172.196 32.7597 172.082 33.1752 171.94 33.9588L171.451 36.6733C171.418 36.8621 170.987 37.1784 170.935 37.3436C170.883 37.5088 171.466 37.8393 171.461 38.0565C171.428 39.0195 172.11 40.549 172.585 41.4602C173.272 42.7773 173.632 43.7639 174.623 44.7458C175.552 45.6664 176.681 46.096 177.999 45.1471C178.871 44.5192 179.81 43.5562 180.616 42.7017L181.777 41.4743C182.308 40.9125 182.877 40.4405 183.588 39.907L183.744 37.1501C184.062 36.9046 184.446 36.6119 184.408 36.3947C184.37 36.1776 184.01 35.7999 183.863 35.5686C183.536 35.054 183.498 33.6756 183.844 33.161C184.712 31.8628 184.086 32.6747 184.716 29.4127C184.816 28.9028 185.209 28.3411 185.337 27.9728C185.721 26.8634 185.987 25.688 186.883 24.8996C187.243 24.5833 187.622 24.1632 188.03 24.1915C189.609 24.2953 190.548 26.7029 190.903 28.2655C191.425 30.5834 191.116 31.4662 190.296 33.77C189.95 34.7377 189.671 35.7291 189.211 36.6119L188.201 38.5616C187.992 38.9629 187.409 39.7135 187.466 40.1997L187.727 42.4326C188.542 43.391 189.552 44.6514 190.652 45.3123L192.273 46.2895C192.624 46.4972 193.667 46.5067 194.013 46.2612L195.506 45.2132L198.067 43.7733L199.641 42.7489L201.096 41.8048C202.471 40.9125 202.964 40.4782 205.164 39.9117L205.211 22.8036C207.553 22.3032 207.415 22.7139 208.169 23.4834C208.458 23.7808 208.781 24.2434 208.838 24.6258C208.885 24.9421 208.364 25.4236 208.06 25.8107L208.046 37.8865C208.046 38.0848 208.596 38.3019 208.629 38.1981L208.852 37.4664C208.985 37.032 209.174 36.2201 209.345 35.8707L210.507 33.4773C210.905 32.6559 211.369 31.6692 211.881 30.8856L212.91 29.3183C213.228 28.832 213.953 28.1758 214.318 27.6613C215.001 26.7029 215.65 25.7729 216.48 24.9279L217.561 23.828C217.954 23.4267 218.315 23.0443 218.808 23.016C219.329 22.9877 219.827 23.3748 220.178 23.7336C221.975 23.4834 223.098 26.5094 223.402 27.902C223.487 28.2938 224.027 28.9925 223.98 29.3607L223.847 30.4088C223.885 30.1255 221.889 31.8628 221.69 31.2916L221.7 31.301ZM171.755 22.9593C172.438 19.9758 171.551 20.4007 172.746 19.5415L172.76 15.2739L172.091 15.1228C172.229 18.5454 171.546 17.1339 171.575 19.584C171.584 20.2543 171.489 20.6178 170.878 21.038L170.859 24.9374C170.859 25.079 171.153 25.5511 171.233 25.4614C171.888 24.7296 171.323 24.8382 171.75 22.9593H171.755ZM158.243 47.7152C157.788 48.6924 157.997 49.8868 158.267 51.0575C160.353 49.0465 162.103 47.3376 163.909 45.3265C164.16 45.048 164.416 44.3682 164.767 44.0424C165.473 43.3815 165.483 42.0078 165.895 41.2241C166.203 40.6387 166.82 39.9448 166.09 39.4113C165.909 39.2791 165.497 38.9156 165.606 38.7646L166.104 38.0659C166.535 37.4569 166.763 36.5033 166.995 35.6394C167.175 34.9643 167.792 33.7039 166.777 33.2318C166.203 32.9627 165.127 33.8172 164.62 34.2515C164.141 34.6622 163.999 34.9266 164.004 35.6489C164.004 35.9699 163.586 36.5269 163.492 36.8621C162.809 39.3169 162.577 39.0289 161.003 41.3327C160.429 42.173 160.126 43.2635 159.58 44.1935C159.239 44.7789 159.192 45.6853 158.831 46.4595L158.243 47.7199V47.7152Z" fill="var(--fill-0, #302220)"/>
<path id="Vector_4" d="M73.2212 57.1049C73.463 56.6186 73.847 56.0191 74.1599 55.5045L75.7007 53.0025L76.7674 51.2039L77.5401 49.8962L78.4267 48.4044C79.9438 45.8458 81.5462 45.6522 80.2661 41.1911C80.0386 40.3933 80.3941 38.8968 80.0623 38.2122L78.7396 35.5214C78.4978 35.0304 77.7061 35.5733 77.4169 35.9085C76.4308 37.0557 75.2835 38.0423 74.4017 39.265L73.3208 40.7709L72.1166 42.3902L71.0073 44.5712L69.9216 46.8749C69.4475 47.3517 68.8312 47.8663 68.6084 48.5744C68.3856 49.2825 67.2904 50.1275 66.6599 49.4477L65.5316 48.2345C65.1476 43.0699 65.9251 44.8355 66.219 43.1502C66.5319 41.3469 66.6694 41.2808 67.134 40.1808L68.3998 37.1784C68.7174 36.4278 68.6795 35.5261 69.6229 35.1815L69.8647 33.7841C70.1871 33.1138 70.5427 32.3349 70.8887 31.7353L72.0218 29.762L72.9178 28.2797C73.1312 27.9256 73.7949 27.3025 74.1267 27.0098L75.6343 25.6832C76.3075 25.0931 78.2939 24.6116 78.915 25.2112L80.2851 26.5236C80.9014 27.1184 80.4795 27.8784 80.3372 28.6432C80.1286 29.7337 80.1334 31.2821 80.2661 32.4009C81.2001 33.5387 81.4893 34.9879 82.0487 36.2012L82.6792 37.5797L83.1201 39.5671C83.324 40.4877 84.6372 40.8417 85.5095 40.2941L84.6324 39.8173L84.7415 37.2303L85.4052 36.5505C85.5854 36.3664 85.0259 35.8046 84.8837 35.5639C84.5708 35.0399 84.5187 33.6756 84.8647 33.1657C85.7371 31.8675 85.116 32.67 85.7418 29.4127C85.8414 28.8981 86.2348 28.3411 86.3581 27.9776C86.799 26.6888 87.6618 23.9318 89.4965 24.2009C89.9043 24.2623 90.2646 24.7438 90.6865 25.0979C91.6821 25.924 91.6441 27.2836 91.9523 28.4638C92.2605 29.644 92.2368 30.607 91.9476 31.8344L91.4403 33.9588C91.2838 34.6103 91.0658 35.106 90.8003 35.6441L89.9611 37.3531C89.5013 38.2878 88.6053 40.313 88.2023 40.3413L88.7333 40.6104C89.506 41.0022 88.0221 41.6962 89.8995 43.5562L91.0989 44.7458C91.5209 45.1613 92.1087 45.5248 92.5591 45.8458C93.6495 46.62 94.6356 46.6483 95.7497 45.8269L97.2383 44.7317L99.1205 43.8017C99.6988 43.3201 100.163 42.9708 100.761 42.6262L102.894 41.3893L105.762 39.8504L107.042 41.4271C105.843 41.7717 105.307 42.3665 104.478 42.9708L102.951 44.0708L100.178 46.1196C98.7933 47.144 97.3948 47.9371 96.1811 48.9945C94.9675 50.052 93.1517 49.7121 91.7816 49.3061C90.4115 48.9001 89.7857 48.4045 88.757 47.583C87.5623 46.6294 86.946 45.7419 86.3344 44.3823L85.6375 42.8339L83.9118 44.2738C84.2769 45.2085 84.1157 46.3839 84.3338 47.2951C84.6609 48.631 84.4665 49.5469 84.3717 50.9018L84.0778 55.0608C84.0778 55.0608 82.3995 60.2489 82.4185 60.2159L81.3186 62.4724L79.958 65.1869C79.8442 65.4182 77.2557 67.8872 77.1135 67.9816L75.1033 69.3318C74.4301 69.7849 72.7187 70.2901 72.0882 69.7189L70.353 68.1468C70.097 66.301 70.116 63.8887 70.8887 62.2458C71.7753 60.3622 71.3154 60.9948 72.2067 59.182L73.2402 57.0766L73.2212 57.1049ZM73.5815 35.4081L74.6625 33.9116L75.8571 32.2593L77.1467 30.4182C77.3932 30.0641 77.3884 29.3041 77.0566 28.8179C76.1132 29.8234 75.0654 30.6731 74.4301 31.7259L73.2734 33.652C72.9083 34.2609 72.586 35.054 72.2636 35.6913L71.7942 36.6213C71.7089 36.7913 72.3347 37.0934 72.4532 36.9376L73.5863 35.4081H73.5815ZM74.8094 67.4246L75.9283 66.419C76.2032 65.8336 76.6726 64.8328 77.0234 64.2002C77.4927 63.3505 77.7914 62.3875 78.1802 61.4103L78.7538 59.9704C79.171 58.9224 79.4649 57.6761 80.0623 56.7555L80.5221 54.3715L80.7355 51.8554C80.9962 51.5438 81.5035 50.8829 81.4371 50.5005L81.1764 48.9993L79.92 50.222C79.4934 50.6374 79.1473 51.1567 78.8012 51.6476L76.9712 54.2724L76.0705 55.5659C75.4352 56.4817 75.1555 57.5156 74.7525 58.6014C74.3496 59.6872 73.591 60.7918 73.7238 62.1231L73.0411 62.6754L73.1075 66.9053C73.1169 67.3868 74.4633 67.7267 74.8047 67.4246H74.8094Z" fill="var(--fill-0, #302220)"/>
<g id="Group_3">
<path id="Vector_5" d="M134.473 38.7221L133.127 36.6402L132.34 35.309C131.358 35.7527 131.372 36.3239 131.178 37.202C131.074 37.6788 130.813 38.3491 130.879 38.8637C130.965 39.501 130.363 39.9637 130.296 40.3697L129.798 43.3721C129.623 44.4248 129.666 45.5342 129.623 46.6058L128.959 47.1629V53.7909L127.077 54.5037C125.28 53.6162 125.541 51.9734 125.987 50.3683C126.333 49.1267 126.025 47.4933 126.176 46.1857C126.205 45.9166 126.532 45.2604 126.537 44.996L126.655 40.8276C127.679 40.2516 127.125 38.335 127.48 35.5214L127.632 34.327C127.765 33.2885 127.774 31.9666 127.845 30.8997C129.391 29.9839 128.002 27.548 127.978 27.4772C127.471 25.9901 127.238 23.8469 127.219 22.2371C126.807 21.8075 126.527 21.4062 126.494 20.8633C126.47 20.4243 127.016 19.7775 127.2 19.381C127.343 17.4124 127.376 16.4258 128.305 14.7971C128.542 14.3817 128.542 13.3053 128.931 12.9796C129.424 12.5689 130.585 12.6633 130.974 13.0457C131.97 14.0276 132.396 15.17 132.719 16.4116C133.463 19.2535 131.965 18.0686 132.662 22.0813L133.487 19.9428C134.34 17.7381 133.757 18.3188 134.691 16.4258C135.672 14.4383 136.218 13.2487 138.038 12.0873C138.944 11.5114 139.859 10.9921 140.958 11.011C141.233 10.7608 141.603 10.3973 141.878 10.3218C143.021 10.0149 143.765 11.9174 143.978 12.1912C144.533 12.9088 144.922 13.1259 144.922 14.2211C144.922 14.7876 144.443 15.5619 144.215 16.0245C144.239 17.5918 143.737 19.1449 142.931 20.4809L141.693 22.5298L140.698 24.2009C140.418 24.6683 140.043 25.1498 139.731 25.5936L137.886 28.2136C135.938 30.98 133.804 31.8486 133.762 32.0233C133.61 32.6275 134.264 33.7889 134.805 34.4875L137.047 37.3908C137.531 38.014 137.953 38.7127 138.512 39.2603L140.181 40.8937C140.726 41.4271 141.342 42.1683 142.101 42.1872C142.859 42.206 143.609 41.4602 143.94 40.8181L145.287 40.3177L145.315 28.3363L146.06 27.1184C146.249 26.8068 146.733 26.127 147.107 26.1317L149.326 26.1789L149.279 28.9359C149.279 29.1389 148.895 29.7762 148.895 29.9933L148.842 41.21C148.833 43.103 150.009 46.0818 151.606 46.9221C151.583 48.074 150.132 48.6263 149.117 48.5886C147.743 48.5366 146.951 48.0551 146.624 46.7191L146.131 44.7222C145.922 43.8725 146.074 42.9897 145.718 41.937C145.088 43.4901 144.5 44.3965 143.13 44.6561C142.983 44.845 142.722 45.2651 142.537 45.2604C142.305 45.2557 141.93 45.0196 141.627 44.7883C141.191 44.4626 140.01 44.2407 139.636 43.8536L137.844 42.0078L135.521 39.8362C135.269 39.6049 134.667 39.0101 134.478 38.7127L134.473 38.7221ZM134.535 27.8879C135.094 26.2733 136.27 25.8296 136.957 24.758L138.176 22.8555C138.498 22.3551 138.806 21.4581 139.157 20.9813C139.901 19.9616 140.295 19.0128 140.778 17.8467C141.328 16.5155 142.21 15.1039 141.542 13.4186C141.366 12.9796 140.257 13.3148 139.887 13.6924C138.28 15.3258 137.166 18.1347 136.426 20.2307C135.084 24.0357 135.947 20.2732 135.231 23.5825L134.734 25.9051C134.535 26.1837 134.25 26.5472 134.127 26.7974C133.994 27.0759 134.307 27.9823 134.53 27.8926L134.535 27.8879Z" fill="var(--fill-0, #302220)"/>
<path id="Vector_6" d="M149.629 14.4336L148.89 15.1181C148.705 15.2928 148.16 14.7593 147.918 14.6319L147.031 14.1692C146.813 14.0559 146.903 13.159 147.05 12.9985C149.715 11.9977 148.62 11.0488 150.388 11.0393C151.037 11.0393 151.44 11.4784 151.905 12.0449L152.398 12.6491C152.398 12.6491 151.45 14.8443 149.625 14.4336H149.629Z" fill="var(--fill-0, #302220)"/>
</g>
</g>
</svg>
