<svg preserveAspectRatio="none" width="100%" height="100%" overflow="visible" style="display: block;" viewBox="0 0 110 22" fill="none" xmlns="http://www.w3.org/2000/svg">
<g id="T-Mobile_US_Logo_2022_RGB_Magenta_on_Transparent 1" clip-path="url(#clip0_44_600)">
<g id="g1088">
<path id="path1090" d="M43.0261 2.99526L37.7246 21.5521H36.4866L30.9309 3.18062V18.1559C30.9469 19.6068 31.6929 20.348 33.1847 20.348H33.7565V21.5521H26.6771V20.348H27.058C28.5501 20.348 29.3121 19.6068 29.3121 18.1559V3.67462C29.2961 2.22336 28.5501 1.48221 27.058 1.48221H26.6771V0.27597H33.7245L37.9151 15.1298L42.153 0.27597H49.1688V1.51326H48.788C47.2959 1.544 46.5498 2.2541 46.5338 3.70537V18.1559C46.5498 19.6068 47.2959 20.348 48.788 20.348H49.1688V21.5521H40.5182V20.348H40.7723C42.2641 20.348 43.0261 19.6068 43.0261 18.1559V2.99526Z" fill="var(--fill-0, #E20074)"/>
</g>
<g id="g1092">
<path id="path1094" d="M53.2564 14.1881C53.2564 18.5108 54.2722 20.7029 56.3989 20.7029C58.526 20.7029 59.5737 18.5108 59.5737 14.1881C59.5737 9.86535 58.526 7.67294 56.3989 7.67294C54.2722 7.67294 53.2564 9.86535 53.2564 14.1881ZM63.2561 14.1881C63.2561 18.3872 60.8752 21.9999 56.3989 21.9999C51.9229 21.9999 49.5737 18.3872 49.5737 14.1881C49.5737 9.98893 51.9229 6.3763 56.3989 6.3763C60.8752 6.3763 63.2561 9.98893 63.2561 14.1881Z" fill="var(--fill-0, #E20074)"/>
</g>
<g id="g1096">
<path id="path1098" d="M68.8093 14.1263C68.8093 16.1334 69.2221 20.4561 72.0792 20.4561C74.7777 20.4561 75.095 16.1641 75.095 14.1263C75.095 12.0885 74.8728 7.79654 72.1743 7.79654C69.3172 7.79654 68.8093 12.1193 68.8093 14.1263ZM65.8254 3.02606C65.8094 1.91448 65.3807 1.48227 64.2378 1.48227H63.8094V0.276033H69.0794V7.96638C69.9522 6.88554 71.1269 6.34528 72.6347 6.34528C76.6663 6.34528 78.7614 9.68001 78.7614 14.1263C78.7614 18.5726 76.6663 21.8763 72.6347 21.8763C70.8716 21.9028 69.182 21.1884 67.9997 19.9158L66.9047 21.5522H65.4602C65.6993 20.4713 65.8216 19.3692 65.8254 18.2637V3.02606Z" fill="var(--fill-0, #E20074)"/>
</g>
<g id="g1100">
<path id="path1102" d="M85.556 18.8042C85.5719 19.9158 86.0003 20.348 87.1432 20.348H87.6351V21.5521H80.2228V20.348H80.7148C81.8576 20.348 82.302 19.9158 82.302 18.8042V9.57187C82.286 8.46029 81.8576 8.02808 80.7148 8.02808H80.3815V6.82397H85.556V18.8042Z" fill="var(--fill-0, #E20074)"/>
</g>
<g id="g1104">
<path id="path1106" d="M85.7147 1.97631C85.7469 3.03614 84.8901 3.92066 83.8007 3.95201C83.7666 3.95292 83.7328 3.95322 83.6987 3.95231C82.5765 3.96053 81.6602 3.08241 81.6518 1.99122C81.6433 0.899732 82.5461 0.00821645 83.668 -1.68158e-06C83.6837 -1.68158e-06 83.699 -1.55852e-06 83.7147 0.000302817C84.8184 -0.000610309 85.714 0.869294 85.715 1.94283C85.715 1.95409 85.715 1.96505 85.7147 1.97631Z" fill="var(--fill-0, #E20074)"/>
</g>
<g id="g1108">
<path id="path1110" d="M94.2693 18.8042C94.2853 19.9158 94.7137 20.348 95.8566 20.348H96.3488V21.5521H88.9994V20.348H89.4281C90.571 20.348 91.0154 19.9158 91.0154 18.8042V3.02598C90.9997 1.9147 90.571 1.48218 89.4281 1.48218H89.1265V0.275945H94.2693V18.8042Z" fill="var(--fill-0, #E20074)"/>
</g>
<g id="g1112">
<path id="path1114" d="M106.46 12.8913C106.397 9.34042 105.508 7.67305 103.857 7.67305C102.206 7.67305 101.238 9.47921 101.127 12.8913H106.46ZM101.095 14.25C101.206 16.7045 101.317 20.5177 104.587 20.5177C106.73 20.5177 107.809 18.8041 108.571 17.1215L109.873 17.7853C108.635 20.2246 107.111 22 104.079 22C99.4445 22 97.5556 18.1402 97.5556 14.1882C97.5556 10.3902 99.4605 6.37611 103.794 6.37611C108.46 6.37611 109.905 10.7299 110 14.25H101.095Z" fill="var(--fill-0, #E20074)"/>
</g>
<path id="path1116" d="M13.9997 14.3181H18.3747V10.0629H13.9997V14.3181ZM1.80883e-06 0.276067V7.50985H1.31248V7.29709C1.31248 3.89296 3.28119 1.76537 6.99987 1.76537H7.21861V17.084C7.21861 19.2116 6.34363 20.0629 4.15617 20.0629H3.49994V21.5522H14.8747V20.0629H14.2185C12.031 20.0629 11.156 19.2116 11.156 17.084V1.76537H11.3748C15.0935 1.76537 17.0622 3.89296 17.0622 7.29709V7.50985H18.3747V0.276067H1.80883e-06ZM4.37492 14.3181H1.80883e-06V10.0629H4.37492V14.3181Z" fill="var(--fill-0, #E20074)"/>
</g>
<defs>
<clipPath id="clip0_44_600">
<rect width="110" height="22" fill="white"/>
</clipPath>
</defs>
</svg>
